<svg id="content" xmlns="http://www.w3.org/2000/svg" xmlns:xlink="http://www.w3.org/1999/xlink" width="573" height="752" viewBox="0 0 573 752"><defs><style>.cls-1,.cls-2{fill:none;}.cls-2,.cls-3{clip-rule:evenodd;}.cls-3,.cls-32,.cls-34{fill:#666;}.cls-4{clip-path:url(#clip-path);}.cls-5{clip-path:url(#clip-path-2);}.cls-6{clip-path:url(#clip-path-3);}.cls-7{clip-path:url(#clip-path-4);}.cls-8{clip-path:url(#clip-path-5);}.cls-9{clip-path:url(#clip-path-6);}.cls-10{clip-path:url(#clip-path-7);}.cls-11{clip-path:url(#clip-path-8);}.cls-12{clip-path:url(#clip-path-9);}.cls-13{clip-path:url(#clip-path-10);}.cls-14{clip-path:url(#clip-path-11);}.cls-15{clip-path:url(#clip-path-12);}.cls-16{clip-path:url(#clip-path-13);}.cls-17{clip-path:url(#clip-path-14);}.cls-18{clip-path:url(#clip-path-15);}.cls-19{fill:#d7d8d8;}.cls-20,.cls-25{fill:#979797;}.cls-21{fill:#4d5055;}.cls-22{fill:#fff;}.cls-23{fill:#0390ff;}.cls-24{fill:red;}.cls-25,.cls-27,.cls-32{fill-rule:evenodd;}.cls-26{fill:#555;}.cls-27{fill:#f2f2f2;}.cls-28{clip-path:url(#clip-path-16);}.cls-29{clip-path:url(#clip-path-17);}.cls-30{clip-path:url(#clip-path-18);}.cls-31{clip-path:url(#clip-path-19);}.cls-33{clip-path:url(#clip-path-20);}</style><clipPath id="clip-path"><rect class="cls-1" x="182.19" y="-163" width="24.325" height="22.574"/></clipPath><clipPath id="clip-path-2"><path class="cls-2" d="M233.713-141.123V-143.7l1.015-.093c.6-.047.924-.374.924-.89v-14.692l-1.8-.095v-2.666h8.539a9.709,9.709,0,0,1,5.538,1.356,5.024,5.024,0,0,1,1.938,4.446,5.537,5.537,0,0,1-1.108,3.556,6.443,6.443,0,0,1-2.631,2.012,3.482,3.482,0,0,1,1.8,1.919l2.262,4.96,1.8.047v2.667h-7.709v-2.574l.924-.093c.461-.047.739-.234.739-.562a.755.755,0,0,0-.139-.421L244.329-148a2.687,2.687,0,0,0-.785-1.123,1.845,1.845,0,0,0-1.2-.328h-2.861v5.569l2.03.093v2.667Zm5.723-11.277h2.723c2.539,0,3.831-1.17,3.831-3.463,0-1.311-.323-2.2-1.016-2.574a6.476,6.476,0,0,0-3.276-.608h-2.262Z"/></clipPath><clipPath id="clip-path-3"><path class="cls-2" d="M252.359-140.656h-8.584v-3.415l1.292-.141c.277-.047.323-.093.323-.093,0-.047,0-.093-.092-.234l-1.477-3.182a2.37,2.37,0,0,0-.647-.982,1.562,1.562,0,0,0-.923-.234h-2.4v4.586l2.03.093v3.556H233.2v-3.416l1.431-.14c.507-.047.507-.281.507-.421v-14.272l-1.8-.093V-162.6H242.3a9.931,9.931,0,0,1,5.815,1.45c1.431.983,2.124,2.621,2.124,4.821a6.128,6.128,0,0,1-1.2,3.837A7.387,7.387,0,0,1,247-150.715a4.162,4.162,0,0,1,1.247,1.731l2.122,4.726,1.938.047v3.556Zm-7.708-.935h6.831v-1.777l-1.615-.048-2.355-5.24a2.761,2.761,0,0,0-1.522-1.685l-1.108-.421,1.061-.421a6.272,6.272,0,0,0,2.447-1.872,5.211,5.211,0,0,0,1.015-3.275c0-1.919-.553-3.275-1.753-4.07a9.286,9.286,0,0,0-5.308-1.264h-8.077v1.825l1.8.047v15.114a1.309,1.309,0,0,1-1.293,1.358l-.645.047v1.684h6.877v-1.825l-2.032-.093v-6.363h3.278a2.407,2.407,0,0,1,1.477.421,3.236,3.236,0,0,1,.877,1.31l1.477,3.135a1.76,1.76,0,0,1,.184.656c0,.281-.092.889-1.107,1.03l-.509.047Zm-2.492-10.388h-3.14v-7.581h2.724a7.423,7.423,0,0,1,3.508.656c.831.469,1.246,1.5,1.246,3C246.451-154.085,245.713-151.979,242.159-151.979Zm-2.262-.889h2.262c2.308,0,3.37-.983,3.37-3.042,0-1.17-.277-1.871-.786-2.2a6.059,6.059,0,0,0-3.045-.562h-1.846v5.8Z"/></clipPath><clipPath id="clip-path-4"><path class="cls-2" d="M269.528-141.123H254.714V-143.7l1.015-.095c.6-.047.923-.374.923-.889v-14.693l-1.8-.093v-2.667h14.307v5.242l-3.184.233v-1.263a1.4,1.4,0,0,0-.139-.749.92.92,0,0,0-.737-.234h-4.617v5.428h7.2v3.23h-7.2v5.9h5.032a.994.994,0,0,0,.739-.234,1.622,1.622,0,0,0,.138-.8v-1.591l3.184.234v5.615Z"/></clipPath><clipPath id="clip-path-5"><path class="cls-2" d="M269.99-140.655H254.3v-3.416l1.431-.14c.507-.047.507-.281.507-.421v-14.319l-1.8-.093V-162.6h15.185v6.13l-4.061.28v-1.731a1.64,1.64,0,0,0-.047-.468.933.933,0,0,0-.369-.047h-4.154v4.491h7.2v4.118h-7.2v5.006h4.571a.953.953,0,0,0,.368-.045,1.912,1.912,0,0,0,.046-.516v-2.059l4.062.281v6.5Zm-14.862-.935h13.939v-4.726l-2.308-.141v1.077a1.993,1.993,0,0,1-.231,1.03,1.3,1.3,0,0,1-1.108.421h-5.492v-6.832h7.2v-2.34h-7.2v-6.27h5.077a1.237,1.237,0,0,1,1.108.421,1.627,1.627,0,0,1,.23,1.03v.8l2.308-.141v-4.4H255.266v1.825l1.8.093v15.114a1.308,1.308,0,0,1-1.292,1.358l-.647.047Z"/></clipPath><clipPath id="clip-path-6"><path class="cls-2" d="M279.082-144.68v-4.491l-5.308-10.2-1.477-.093v-2.667h7.616v2.574l-.923.093a.64.64,0,0,0-.647.374,1.125,1.125,0,0,0,.092.842l2.631,5.523h.139l3.414-6.6-1.569-.14v-2.667h6.693v2.574l-.923.093c-.417.047-.74.374-1.062.937l-4.893,9.405v5.24l2.446.095v2.666H276.5V-143.7l1.661-.093c.645-.048.923-.328.923-.89"/></clipPath><clipPath id="clip-path-7"><path class="cls-2" d="M285.775-140.655h-9.692v-3.463l2.076-.14c.461-.047.461-.188.461-.421v-4.352L273.5-158.9,271.883-159v-3.6h8.492v3.415l-1.339.141c-.184,0-.23.047-.276.093a.64.64,0,0,0,.092.468l2.308,4.821,2.723-5.288-1.292-.093V-162.6h7.616v3.415l-1.339.141c-.277.047-.553.421-.693.7l-4.8,9.312v4.679l2.446.093v3.6Zm-8.769-.935H284.9v-1.825l-2.447-.093.046-5.9,4.893-9.405a1.822,1.822,0,0,1,1.431-1.17l.553-.047v-1.685h-5.815v1.825l1.8.14-3.831,7.441h-.693l-2.769-5.756a1.471,1.471,0,0,1-.138-1.218,1.1,1.1,0,0,1,1.015-.654l.509-.047v-1.685h-6.739v1.825l1.292.093,5.493,10.67v4.491a1.293,1.293,0,0,1-1.339,1.358l-1.246.093v1.544Z"/></clipPath><clipPath id="clip-path-8"><rect class="cls-1" x="292.19" y="-162.695" width="18.832" height="22.695"/></clipPath><clipPath id="clip-path-9"><path class="cls-2" d="M329.436-142.293l-2.631-5.756a3.192,3.192,0,0,0-1.615-1.825l-1.431-.514,1.385-.561a6.56,6.56,0,0,0,2.63-2.059,5.31,5.31,0,0,0,1.109-3.509c0-2.06-.6-3.509-1.846-4.4a9.805,9.805,0,0,0-5.723-1.356H312.59v1.777l1.938.141V-143.7a1.488,1.488,0,0,1-1.523,1.544l-.6.095v1.637h7.338V-142.2l-2.216-.14v-7.207h3.693a2.917,2.917,0,0,1,1.661.469,3.981,3.981,0,0,1,1.016,1.45l1.615,3.463a1.63,1.63,0,0,1,.184.749c0,.328-.138,1.077-1.292,1.216l-.507.047v1.685h7.246v-1.779Zm-8.4-9.312h-3.554v-8.517h3.092a7.4,7.4,0,0,1,3.831.749q1.384.843,1.384,3.37C325.835-154.038,325-151.6,321.036-151.6Z"/></clipPath><clipPath id="clip-path-10"><path class="cls-2" d="M351.774-142.339l-.184-.374-6.831-19.559h-6.831v1.684l2.355.233-5.723,16.846a1.78,1.78,0,0,1-1.523,1.356l-.6.095v1.637h6.738V-142.2l-2.308-.14L338.3-146.5h8.815l.877,2.574c.185.608.139,1.075-.184,1.356a1.535,1.535,0,0,1-1.108.468l-.785.095v1.637h7.662v-1.779Zm-13.061-6.224,3.554-11.043h.97l3.416,11.043Z"/></clipPath><clipPath id="clip-path-11"><path class="cls-2" d="M370.467-140.468h3.092V-158.9a1.505,1.505,0,0,1,1.339-1.685l.691-.047v-1.684h-7.153v1.777l2.262.095v13.99h-.924l-.231-.28-9.507-15.629h-5.216v1.777l1.938.095v16.657a1.443,1.443,0,0,1-1.431,1.544l-.691.047v1.685h7.2v-1.779l-2.216-.093v-14.178h.923l.231.28Z"/></clipPath><clipPath id="clip-path-12"><path class="cls-2" d="M387.775-162.742a11.251,11.251,0,0,0-5.907,1.544,10.041,10.041,0,0,0-2.354,2.105,11.666,11.666,0,0,0-1.662,3.23,15.053,15.053,0,0,0-.645,4.491c0,3.744.831,6.6,2.492,8.47a8.777,8.777,0,0,0,6.923,2.807,13.234,13.234,0,0,0,7.292-1.919v-5.942a1.958,1.958,0,0,1,.369-1.263,1.751,1.751,0,0,1,1.108-.468l.277-.047v-1.639h-7.292v1.779l2.631.093.046.562v5.521l-.277.188a7.179,7.179,0,0,1-3.923.935c-4.339,0-6.508-3.135-6.508-9.312,0-5.9,2.4-8.844,7.154-8.844,2.168,0,3.23.281,3.6.935a2.33,2.33,0,0,1,.23,1.077v2.06l2.308-.141v-5.007a14.456,14.456,0,0,0-5.861-1.216"/></clipPath><clipPath id="clip-path-13"><path class="cls-2" d="M397.144-140.468H412.19v-5.007l-2.308-.14v1.075a2.078,2.078,0,0,1-.277,1.171,1.506,1.506,0,0,1-1.292.514h-6.092v-7.674h7.893v-2.34h-7.893v-7.066h5.631a1.594,1.594,0,0,1,1.293.468,2.087,2.087,0,0,1,.276,1.17v.749l2.308-.14v-4.586H397.236v1.779l1.938.093v16.659a1.489,1.489,0,0,1-1.523,1.544l-.6.047v1.684Z"/></clipPath><clipPath id="clip-path-14"><path class="cls-2" d="M228.913-148.47v5.709a12.235,12.235,0,0,1-7.2,2.012,8.536,8.536,0,0,1-6.739-2.714c-1.615-1.824-2.4-4.539-2.4-8.1a13.552,13.552,0,0,1,.6-4.258,10.419,10.419,0,0,1,1.569-3.135,8.852,8.852,0,0,1,2.308-2.059,10.958,10.958,0,0,1,5.677-1.5,13.332,13.332,0,0,1,5.907,1.31v3.744l-1.892-.374-.461.048c0-.328-.877-1.311-.969-1.452-.231-.42-2.078.048-3.739.048-4.016,0-5.4,2.386-5.4,7.393,0,5.334,2.122,7.954,5.769,7.954a6.039,6.039,0,0,0,3.322-.749v-4.773h-.046l-1.938-.093v-2.667h7.246v2.526l-.739.047a1.205,1.205,0,0,0-.691.281c-.139.141-.185.374-.185.8"/></clipPath><clipPath id="clip-path-15"><path class="cls-2" d="M222.221-140.281c-3.832.14-8.955-.609-9.739-7.019a48.216,48.216,0,0,1-.092-7.066c.185-2.855.6-5.756,3.97-7.535a14.2,14.2,0,0,1,6.368-1.075,20.138,20.138,0,0,1,6.416,1.17l.276.14v4.773h-3.276s-.369-1.637-.369-1.684a24.151,24.151,0,0,0-4.108-.047c-3.738.421-3.923,2.9-4.061,6.691-.185,5.054.6,7.3,3.969,7.3a22.891,22.891,0,0,0,2.815-.095v-4.35l-1.523-.095v-3.322h8.124v3.416l-1.57.233-.092,7.347-.184.14c-1.846.937-5.216,1.077-6.923,1.077m.507-21.806a10.628,10.628,0,0,0-5.446,1.4,7.947,7.947,0,0,0-2.17,1.967,10.619,10.619,0,0,0-1.523,2.994,14.282,14.282,0,0,0-.6,4.118c0,3.463.786,6.084,2.309,7.814a8.022,8.022,0,0,0,6.368,2.574c2.677,0,4.939-.141,6.739-1.358v-5.9a1.428,1.428,0,0,1,.323-1.077,1.708,1.708,0,0,1,.969-.421l.323-.047V-151.7h-6.414v1.824l1.938.095.045.421v4.959l-.184.141a6.358,6.358,0,0,1-3.554.842c-3.877,0-6.184-2.855-6.184-8.423,0-5.335,1.569-7.861,5.861-7.861,1.938,0,3.831-.374,4.154.233.138.234.645.516.645.937v.562l2.309-.141-.463-2.807a12.671,12.671,0,0,0-5.446-1.17"/></clipPath><clipPath id="clip-path-16"><path class="cls-2" d="M208.849,469.151a21,21,0,1,0,0,29.7A21,21,0,0,0,208.849,469.151Zm-16.6,16.6H180.958v-3.5h26.083v3.5H192.25Z"/></clipPath><clipPath id="clip-path-17"><rect class="cls-1" x="-948.686" y="153.585" width="1612.782" height="907.19"/></clipPath><clipPath id="clip-path-18"><path class="cls-2" d="M251.849,469.151a21,21,0,1,0,0,29.7A21,21,0,0,0,251.849,469.151Zm-13.1,27.891h-3.5V485.749H223.958v-3.5H235.25V470.958h3.5V482.25h11.292v3.5H238.75Z"/></clipPath><clipPath id="clip-path-19"><rect class="cls-1" x="-1115.684" y="153.585" width="1612.782" height="907.19"/></clipPath><clipPath id="clip-path-20"><path class="cls-3" d="M291-250.994a3,3,0,0,1-3,3,3,3,0,0,1-3-3Zm-1.02-18.722a7,7,0,0,1,5.02,6.709v5h.507a2.489,2.489,0,0,1,2.493,2.5,2.5,2.5,0,0,1-2.493,2.5H280.493a2.489,2.489,0,0,1-2.493-2.5,2.5,2.5,0,0,1,2.493-2.5H281v-5a7,7,0,0,1,5.02-6.709A2.013,2.013,0,0,1,286-270a2,2,0,0,1,2-2,2,2,0,0,1,2,2A2.014,2.014,0,0,1,289.981-269.716Z"/></clipPath></defs><title>BOI icons</title><rect class="cls-19" x="5" y="243" width="134" height="134"/><path class="cls-20" d="M135,247V373H9V247H135m8-8H1V381H143V239Z"/><rect class="cls-21" x="151.5" y="246.5" width="127" height="127"/><polygon class="cls-22" points="206.039 333.674 182.184 312.6 186.156 308.104 205.824 325.479 243.729 288.282 247.932 292.565 206.039 333.674"/><rect class="cls-23" x="294.5" y="246.5" width="127" height="127"/><polygon class="cls-22" points="399.093 306.745 328.472 306.745 346.458 288.98 342.241 284.711 316.638 310 342.241 335.289 346.458 331.02 327.956 312.745 399.093 312.745 399.093 306.745"/><rect class="cls-24" x="437.5" y="246.5" width="127" height="127"/><ellipse class="cls-20" cx="59.065" cy="31.812" rx="30.75" ry="30.813"/><path class="cls-25" d="M111.185,119.2C103.815,93.8,83.019,71.637,59.066,71.637S16.411,93.8,9.044,119.2s-9,44.969-7.26,69.253,7.987,43.706,12.591,44.623S33.564,238,59.066,238s40.082-4,44.687-4.927,9.484-16.068,12.44-44.623S118.557,144.588,111.185,119.2Z"/><path class="cls-22" d="M41,382a40,40,0,1,0,40,40A40,40,0,0,0,41,382Zm0,76a36,36,0,1,1,36-36A36.041,36.041,0,0,1,41,458Z"/><path class="cls-22" d="M45.832,402.128h-5.5A23.645,23.645,0,0,1,36.2,404.08a34.008,34.008,0,0,1-5.28,1.376v4.608h7.488v26.752H29.321v6.016H53.832v-6.016h-8Z"/><path class="cls-22" d="M122,382a40,40,0,1,0,40,40A40,40,0,0,0,122,382Zm0,76a36,36,0,1,1,36-36A36.041,36.041,0,0,1,122,458Z"/><path class="cls-22" d="M122.225,436.719q-1.857.161-3.456.288,3.007-3.2,5.7-6.208a66.467,66.467,0,0,0,4.7-5.855,30.384,30.384,0,0,0,3.2-5.632,13.923,13.923,0,0,0,1.184-5.473,13.6,13.6,0,0,0-.928-5.12A11.14,11.14,0,0,0,126,402.255a14.933,14.933,0,0,0-5.312-.9,14.78,14.78,0,0,0-7.2,1.632,23.54,23.54,0,0,0-5.792,4.64l4.1,4.1a20.339,20.339,0,0,1,3.616-3.2,7.446,7.446,0,0,1,4.32-1.345,6.432,6.432,0,0,1,4.992,1.889,7.342,7.342,0,0,1,1.728,5.151,10.9,10.9,0,0,1-1.28,4.864,30.467,30.467,0,0,1-3.68,5.5q-2.4,2.944-5.824,6.4t-7.647,7.552v4.288h27.52v-6.272h-9.984Q124.08,436.559,122.225,436.719Z"/><path class="cls-22" d="M19,506a18,18,0,1,0,18,18A18,18,0,0,0,19,506Zm-2.623,25.274-7.4-6.537,1.986-2.248,5.306,4.688,10.65-10.451,2.1,2.141Z"/><path class="cls-22" d="M56,506a18,18,0,1,0,18,18A18,18,0,0,0,56,506Zm8.964,24.843-2.121,2.121L56,526.121l-6.843,6.843-2.121-2.121L53.879,524l-6.843-6.843,2.121-2.121L56,521.879l6.843-6.843,2.121,2.121L58.121,524Z"/><path class="cls-25" d="M9.687,606.983q3.425,0,6.849,0c.511,0,1.151.154,1.374-.487a1.54,1.54,0,0,0-.6-1.715,6.888,6.888,0,0,0-3.081-1.183c-1.136-.278-1.788-.3-2.167-.447l-.005,0a.668.668,0,0,1-.294-.2.992.992,0,0,1-.316-.721v-2.883a1.926,1.926,0,0,1,.072-.752c.006-.015.008-.031.015-.046a.865.865,0,0,1,.2-.3l.006-.007c.423-.4,1.278-.476,2.537-1.167a7.142,7.142,0,0,0,3.664-6.431c.144-5.351-.521-8.377-1.4-13.644H11.016c.322.9.6.661.951,1.6a1.269,1.269,0,0,1-.495,1.646c-.909.726-2.557,1.433-2.448,2.29a4.8,4.8,0,0,0,1.684,2.6c.21.205.209.207.425.406.3.279-.041.624-.29.963l-2.682,1.965c1.467-1.6,2.029-2.785.477-3.633a5.16,5.16,0,0,1-.694-.541c-1.95-1.557-1.353-1.721.4-3.4,1.667-1.592.941-2.294.051-3.895H2.442c-.853,5.111-1.5,8.18-1.4,13.2h.006c0,.152,0,.288,0,.444a7.142,7.142,0,0,0,3.664,6.431c1.259.691,2.115.766,2.537,1.167l.006.007a.865.865,0,0,1,.2.3c.007.015.009.031.015.046a1.926,1.926,0,0,1,.072.752v2.883a.992.992,0,0,1-.316.721.668.668,0,0,1-.294.2l-.005,0c-.379.144-1.031.169-2.167.447a6.888,6.888,0,0,0-3.081,1.183,1.54,1.54,0,0,0-.6,1.715c.223.641.863.486,1.374.487q3.518,0,7.037,0"/><path class="cls-20" d="M52.827,578.826c.01-1.4-.422-1.845-1.826-1.825-2.24.031-4.48.037-6.72.037l-3.584,0a.578.578,0,0,0-.339.154.846.846,0,0,0-.233.609A4.129,4.129,0,0,1,36,581.929h0a4.129,4.129,0,0,1-4.124-4.125.846.846,0,0,0-.233-.609.578.578,0,0,0-.339-.154l-3.584,0c-2.24,0-4.48-.006-6.72-.037-1.4-.02-1.836.421-1.826,1.825.055,8.4.054,7.941,0,16.339-.009,1.394.415,1.842,1.823,1.835q7.5-.038,15-.038T51,597c1.408.007,1.832-.441,1.823-1.835C52.773,586.767,52.772,587.224,52.827,578.826Z"/><path class="cls-25" d="M91.733,592.307l-2.574-1.132C85.067,589.348,78.1,586.224,75.345,585a1.621,1.621,0,0,1-.156-.184c-.893-1.377,1.049-1.905,1.624-2.885a3.061,3.061,0,0,0-.027-3.6,3.017,3.017,0,0,0-3.1-1.278,3.075,3.075,0,0,0-2.577,2.359c-.137.494-.213,1.076.417,1.328.651.261.988-.111,1.1-.705a1.555,1.555,0,0,1,1.746-1.453A1.424,1.424,0,0,1,75.68,579.6a1.826,1.826,0,0,1-.856,2.16c-.693.511-1.459,1.088-1.366,1.987a1.3,1.3,0,0,1-.465,1.279c-3.085,1.351-14.11,6.122-16.729,7.277-1.071.473-2.16,1.006-2.246,2.14,0,.026,0,.055-.008.081,0,.05-.011.094-.009.146a1.491,1.491,0,0,0,.071.44c.01.046.008.083.021.131.445,1.613,1.834,1.745,3.319,1.742h.5c.135.007.272.014.4.014q12.668-.06,25.336-.023v.013q3.468.006,6.936.01c1.485,0,2.874-.128,3.319-1.742a2.522,2.522,0,0,0,.1-.6c.045-1.286-1.129-1.845-2.265-2.346M74,595.424q-8.108,0-16.215-.008c-.047,0-.1,0-.146.006h-.443c-.14,0-.29.009-.441.012a.686.686,0,0,1-.645-.589c-.173-.842.8-.889,1.337-1.131,5.182-2.331,10.39-4.612,15.572-6.944a2.675,2.675,0,0,1,2.4.014q5.991,2.7,12,5.362c1.673.753,3.055,1.373,3.745,1.682.433.194,1.126.264,1.168.792a.811.811,0,0,1-.025.249c-.173.705-.931.553-1.508.554q-8.4,0-16.808,0"/><path class="cls-26" d="M1,543v33H34V543Zm31,31H3V545H32Z"/><rect class="cls-26" x="8" y="558.5" width="19" height="2"/><rect class="cls-26" x="8" y="551.5" width="19" height="2"/><rect class="cls-26" x="8" y="565.5" width="19" height="2"/><polygon class="cls-25" points="91.601 496.771 106.94 481.327 107.884 480.376 108 480.493 108.117 480.376 109.061 481.327 124.4 496.771 129 492.229 108 471.229 87 492.229 91.601 496.771"/><polygon class="cls-27" points="134.601 496.771 149.94 481.327 150.884 480.376 151 480.493 151.117 480.376 152.061 481.327 167.4 496.771 172 492.229 151 471.229 130 492.229 134.601 496.771"/><polygon class="cls-25" points="38.399 471.229 23.06 486.673 22.116 487.624 22 487.507 21.883 487.624 20.939 486.673 5.6 471.229 1 475.771 22 496.771 43 475.771 38.399 471.229"/><polygon class="cls-27" points="81.399 471.229 66.06 486.673 65.116 487.624 65 487.507 64.883 487.624 63.939 486.673 48.6 471.229 44 475.771 65 496.771 86 475.771 81.399 471.229"/><ellipse class="cls-20" cx="134.883" cy="9.32" rx="8.304" ry="8.321"/><path class="cls-25" d="M148.957,32.918c-1.99-6.857-7.606-12.843-14.074-12.843s-11.519,5.986-13.508,12.843a49.176,49.176,0,0,0-1.961,18.7c.469,6.555,2.157,11.8,3.4,12.05a55.39,55.39,0,0,0,24.136,0c1.245-.248,2.561-4.339,3.359-12.05S150.948,39.775,148.957,32.918Z"/><polygon class="cls-22" points="523.951 291.291 519.709 287.049 501 305.758 482.291 287.049 478.049 291.291 496.758 310 478.049 328.709 482.291 332.951 501 314.242 519.709 332.951 523.951 328.709 505.242 310 523.951 291.291"/><g class="cls-28"><g class="cls-29"><rect class="cls-20" x="168.8" y="458.8" width="50.399" height="50.399" transform="translate(-285.418 278.939) rotate(-45)"/></g></g><g class="cls-30"><g class="cls-31"><rect class="cls-20" x="211.8" y="458.8" width="50.399" height="50.399" transform="translate(-272.824 309.345) rotate(-45)"/></g></g><path class="cls-32" d="M291-250.994a3,3,0,0,1-3,3,3,3,0,0,1-3-3Zm-1.02-18.722a7,7,0,0,1,5.02,6.709v5h.507a2.489,2.489,0,0,1,2.493,2.5,2.5,2.5,0,0,1-2.493,2.5H280.493a2.489,2.489,0,0,1-2.493-2.5,2.5,2.5,0,0,1,2.493-2.5H281v-5a7,7,0,0,1,5.02-6.709A2.013,2.013,0,0,1,286-270a2,2,0,0,1,2-2,2,2,0,0,1,2,2A2.014,2.014,0,0,1,289.981-269.716Z"/><g class="cls-33"><rect class="cls-34" x="69.001" y="-344.927" width="811" height="759.257"/></g></svg>