<?xml version="1.0" encoding="utf-8"?>
<!-- Generator: Adobe Illustrator 21.1.0, SVG Export Plug-In . SVG Version: 6.00 Build 0)  -->
<svg version="1.1" id="content" xmlns="http://www.w3.org/2000/svg" xmlns:xlink="http://www.w3.org/1999/xlink" x="0px" y="0px"
	 viewBox="0 0 573 752" style="enable-background:new 0 0 573 752;" xml:space="preserve">
<style type="text/css">
	.st0{fill:#D7D8D8;}
	.st1{fill:#979797;}
	.st2{fill:#4D5055;}
	.st3{fill:#FFFFFF;}
	.st4{fill:#0390FF;}
	.st5{fill:#555555;}
	.st6{fill:#F2F2F2;}
	.st7{fill:#FF0000;}
	.st8{clip-path:url(#SVGID_2_);}
	.st9{clip-path:url(#SVGID_4_);}
	.st10{clip-path:url(#SVGID_6_);}
	.st11{clip-path:url(#SVGID_8_);}
	.st12{fill:#333333;}
	.st13{clip-path:url(#SVGID_10_);}
	.st14{clip-path:url(#SVGID_12_);}
	.st15{clip-path:url(#SVGID_14_);}
	.st16{fill:#FFFFFF;stroke:#EC6520;stroke-width:2;stroke-linejoin:round;}
	.st17{fill:none;stroke:#EC6520;stroke-width:2;stroke-linejoin:round;}
	.st18{fill:none;stroke:#EC6520;stroke-width:3;stroke-linecap:round;stroke-linejoin:round;}
	.st19{clip-path:url(#SVGID_16_);}
	.st20{clip-path:url(#SVGID_18_);}
	.st21{fill:#FFFFFF;stroke:#F36F36;stroke-width:2;stroke-linejoin:round;}
	.st22{fill:none;stroke:#F36F36;stroke-width:2;stroke-linejoin:round;}
	.st23{clip-path:url(#SVGID_20_);fill:#979797;}
	.st24{clip-path:url(#SVGID_22_);fill:#FFFFFF;}
	.st25{fill:none;stroke:#EC6520;stroke-width:2;stroke-linejoin:round;stroke-miterlimit:10;}
	.st26{clip-path:url(#SVGID_24_);fill:#FFFFFF;}
	.st27{clip-path:url(#SVGID_26_);fill:#FFFFFF;}
	.st28{clip-path:url(#SVGID_28_);fill:#FFFFFF;}
	.st29{clip-path:url(#SVGID_30_);fill:#FFFFFF;}
	.st30{clip-path:url(#SVGID_32_);fill:#FFFFFF;}
	.st31{clip-path:url(#SVGID_34_);fill:#FFFFFF;}
	.st32{clip-path:url(#SVGID_36_);fill:#FFFFFF;}
	.st33{clip-path:url(#SVGID_38_);fill:#FFFFFF;}
	.st34{clip-path:url(#SVGID_40_);fill:#FFFFFF;}
	.st35{clip-path:url(#SVGID_42_);fill:#FFFFFF;}
	.st36{fill:none;stroke:#EC6520;stroke-width:3;stroke-linecap:round;stroke-linejoin:round;stroke-miterlimit:10;}
	.st37{clip-path:url(#SVGID_44_);fill:#FFFFFF;}
	.st38{clip-path:url(#SVGID_46_);fill:#FFFFFF;}
	.st39{fill:none;stroke:#F36F36;stroke-width:2;stroke-linejoin:round;stroke-miterlimit:10;}
	.st40{clip-path:url(#SVGID_48_);fill:#FFFFFF;}
	.st41{clip-path:url(#SVGID_50_);fill:#FFFFFF;}
	.st42{clip-path:url(#SVGID_52_);fill:#FFFFFF;}
	.st43{clip-path:url(#SVGID_54_);fill:#979797;}
	.st44{clip-path:url(#SVGID_56_);fill:#979797;}
</style>
<title>BOI icons</title>
<rect x="22" y="260" class="st0" width="100" height="100"/>
<path class="st1" d="M116.4,265.6v88.7H27.6v-88.7H116.4 M122,260H22v100h100V260z"/>
<g>
	<rect x="165" y="260" class="st2" width="100" height="100"/>
	<polygon class="st3" points="207.9,328.6 189.2,312 192.3,308.5 207.8,322.2 237.6,292.9 240.9,296.3 	"/>
</g>
<g>
	<rect x="308" y="260" class="st4" width="100" height="100"/>
	<polygon class="st3" points="390.4,307.4 334.7,307.4 348.9,293.4 345.6,290.1 325.4,310 345.6,329.9 348.9,326.6 334.3,312.2 
		390.4,312.2 	"/>
</g>
<g>
	<ellipse class="st1" cx="59.1" cy="31.8" rx="30.8" ry="30.8"/>
	<path class="st1" d="M111.2,119.2C103.8,93.8,83,71.6,59.1,71.6S16.4,93.8,9,119.2s-9,45-7.3,69.3s8,43.7,12.6,44.6
		s19.2,4.9,44.7,4.9s40.1-4,44.7-4.9s9.5-16.1,12.4-44.6S118.6,144.6,111.2,119.2z"/>
</g>
<path class="st3" d="M41,382c-22.1,0-40,17.9-40,40s17.9,40,40,40s40-17.9,40-40S63.1,382,41,382z M41,458c-19.9,0-36-16.1-36-36
	s16.1-36,36-36s36,16.1,36,36l0,0C77,441.9,60.9,458,41,458z"/>
<path class="st3" d="M45.8,402.1h-5.5c-1.3,0.8-2.7,1.4-4.1,2c-1.7,0.6-3.5,1.1-5.3,1.4v4.6h7.5v26.8h-9.1v6h24.5v-6h-8V402.1z"/>
<path class="st3" d="M122,382c-22.1,0-40,17.9-40,40s17.9,40,40,40s40-17.9,40-40S144.1,382,122,382z M122,458
	c-19.9,0-36-16.1-36-36s16.1-36,36-36s36,16.1,36,36l0,0C158,441.9,141.9,458,122,458z"/>
<path class="st3" d="M122.2,436.7c-1.2,0.1-2.4,0.2-3.5,0.3c2-2.1,3.9-4.2,5.7-6.2c1.7-1.9,3.2-3.8,4.7-5.9c1.3-1.8,2.3-3.6,3.2-5.6
	c0.8-1.7,1.2-3.6,1.2-5.5c0-1.8-0.3-3.5-0.9-5.1c-1.2-3-3.6-5.4-6.6-6.5c-1.7-0.6-3.5-0.9-5.3-0.9c-2.5-0.1-5,0.5-7.2,1.6
	c-2.2,1.2-4.1,2.8-5.8,4.6l4.1,4.1c1.1-1.2,2.3-2.3,3.6-3.2c1.3-0.9,2.8-1.4,4.3-1.3c1.9-0.1,3.7,0.6,5,1.9c1.2,1.4,1.8,3.3,1.7,5.2
	c0,1.7-0.5,3.4-1.3,4.9c-1,2-2.3,3.8-3.7,5.5c-1.6,2-3.5,4.1-5.8,6.4c-2.3,2.3-4.8,4.8-7.6,7.6v4.3h27.5v-6.3h-10
	C124.6,436.6,123.5,436.6,122.2,436.7z"/>
<path class="st3" d="M19,506c-9.9,0-18,8.1-18,18s8.1,18,18,18s18-8.1,18-18S28.9,506,19,506z M16.4,531.3L9,524.7l2-2.2l5.3,4.7
	l10.6-10.5l2.1,2.1L16.4,531.3z"/>
<path class="st3" d="M56,506c-9.9,0-18,8.1-18,18s8.1,18,18,18s18-8.1,18-18S65.9,506,56,506z M65,530.8l-2.1,2.1l-6.8-6.8l-6.8,6.8
	l-2.1-2.1l6.8-6.8l-6.8-6.8l2.1-2.1l6.8,6.8l6.8-6.8l2.1,2.1l-6.8,6.8L65,530.8z"/>
<path class="st1" d="M52.8,578.8c0-1.4-0.4-1.8-1.8-1.8c-2.2,0-4.5,0-6.7,0h-3.6c-0.1,0-0.2,0.1-0.3,0.2c-0.2,0.2-0.2,0.4-0.2,0.6
	c0,2.3-1.8,4.1-4.1,4.1l0,0c-2.3,0-4.1-1.8-4.1-4.1c0-0.2-0.1-0.4-0.2-0.6c-0.1-0.1-0.2-0.1-0.3-0.2h-3.6c-2.2,0-4.5,0-6.7,0
	c-1.4,0-1.8,0.4-1.8,1.8c0.1,8.4,0.1,7.9,0,16.3c0,1.4,0.4,1.8,1.8,1.8c5,0,10,0,15,0s10,0,15,0c1.4,0,1.8-0.4,1.8-1.8
	C52.8,586.8,52.8,587.2,52.8,578.8z"/>
<path class="st1" d="M91.7,592.3l-2.6-1.1c-4.1-1.8-11.1-5-13.8-6.2c-0.1-0.1-0.1-0.1-0.2-0.2c-0.9-1.4,1-1.9,1.6-2.9
	c0.8-1.1,0.8-2.5,0-3.6c-0.7-1-1.9-1.5-3.1-1.3c-1.3,0.2-2.3,1.1-2.6,2.4c-0.1,0.5-0.2,1.1,0.4,1.3c0.7,0.3,1-0.1,1.1-0.7
	c0-0.9,0.8-1.5,1.6-1.5c0,0,0.1,0,0.1,0c0.6,0,1.1,0.4,1.3,1c0.3,0.8-0.1,1.7-0.9,2.2c-0.7,0.5-1.5,1.1-1.4,2c0.1,0.5-0.1,1-0.5,1.3
	c-3.1,1.4-14.1,6.1-16.7,7.3c-1.1,0.5-2.2,1-2.2,2.1c0,0,0,0.1,0,0.1c0,0,0,0.1,0,0.1c0,0.1,0,0.3,0.1,0.4c0,0,0,0.1,0,0.1
	c0.4,1.6,1.8,1.7,3.3,1.7h0.5c0.1,0,0.3,0,0.4,0c8.4,0,16.9,0,25.3,0v0c2.3,0,4.6,0,6.9,0c1.5,0,2.9-0.1,3.3-1.7
	c0.1-0.2,0.1-0.4,0.1-0.6C94,593.4,92.9,592.8,91.7,592.3 M74,595.4c-5.4,0-10.8,0-16.2,0c0,0-0.1,0-0.1,0h-0.4c-0.1,0-0.3,0-0.4,0
	c-0.3,0-0.6-0.3-0.6-0.6c-0.2-0.8,0.8-0.9,1.3-1.1c5.2-2.3,10.4-4.6,15.6-6.9c0.8-0.4,1.6-0.4,2.4,0c4,1.8,8,3.6,12,5.4
	c1.7,0.8,3.1,1.4,3.7,1.7c0.4,0.2,1.1,0.3,1.2,0.8c0,0.1,0,0.2,0,0.2c-0.2,0.7-0.9,0.6-1.5,0.6C85.2,595.4,79.6,595.4,74,595.4"/>
<path class="st5" d="M1,543v33h33v-33H1z M32,574H3v-29h29V574z"/>
<rect x="8" y="558.5" class="st5" width="19" height="2"/>
<rect x="8" y="551.5" class="st5" width="19" height="2"/>
<rect x="8" y="565.5" class="st5" width="19" height="2"/>
<polygon class="st1" points="91.6,496.8 106.9,481.3 107.9,480.4 108,480.5 108.1,480.4 109.1,481.3 124.4,496.8 129,492.2 
	108,471.2 87,492.2 "/>
<polygon class="st6" points="134.6,496.8 149.9,481.3 150.9,480.4 151,480.5 151.1,480.4 152.1,481.3 167.4,496.8 172,492.2 
	151,471.2 130,492.2 "/>
<polygon class="st1" points="38.4,471.2 23.1,486.7 22.1,487.6 22,487.5 21.9,487.6 20.9,486.7 5.6,471.2 1,475.8 22,496.8 
	43,475.8 "/>
<polygon class="st6" points="81.4,471.2 66.1,486.7 65.1,487.6 65,487.5 64.9,487.6 63.9,486.7 48.6,471.2 44,475.8 65,496.8 
	86,475.8 "/>
<g>
	<ellipse class="st1" cx="134.9" cy="9.3" rx="8.3" ry="8.3"/>
	<path class="st1" d="M149,32.9c-2-6.9-7.6-12.8-14.1-12.8c-6.5,0-11.5,6-13.5,12.8c-1.9,6-2.5,12.4-2,18.7c0.5,6.6,2.2,11.8,3.4,12
		c7.9,1.8,16.2,1.8,24.1,0c1.2-0.2,2.6-4.3,3.4-12S150.9,39.8,149,32.9z"/>
</g>
<g>
	<rect x="451" y="260" class="st7" width="100" height="100"/>
	<polygon class="st3" points="519.1,295.3 515.7,291.9 501,306.7 486.3,291.9 482.9,295.3 497.7,310 482.9,324.7 486.3,328.1 
		501,313.3 515.7,328.1 519.1,324.7 504.3,310 	"/>
</g>
<g>
	<defs>
		<path id="SVGID_1_" d="M208.8,469.2c-8.2-8.2-21.5-8.2-29.7,0c-8.2,8.2-8.2,21.5,0,29.7c8.2,8.2,21.5,8.2,29.7,0
			C217.1,490.7,217.1,477.4,208.8,469.2C208.9,469.2,208.8,469.2,208.8,469.2z M192.2,485.8H181v-3.5H207v3.5H192.2L192.2,485.8z"/>
	</defs>
	<clipPath id="SVGID_2_">
		<use xlink:href="#SVGID_1_"  style="overflow:visible;"/>
	</clipPath>
	<g class="st8">
		<g>
			<defs>
				<rect id="SVGID_3_" x="-948.7" y="153.6" width="1612.8" height="907.2"/>
			</defs>
			<clipPath id="SVGID_4_">
				<use xlink:href="#SVGID_3_"  style="overflow:visible;"/>
			</clipPath>
			<g class="st9">
				
					<rect x="168.8" y="458.8" transform="matrix(0.7071 -0.7071 0.7071 0.7071 -285.4185 278.9388)" class="st1" width="50.4" height="50.4"/>
			</g>
		</g>
		<g>
			<defs>
				<path id="SVGID_5_" d="M251.8,469.2c-8.2-8.2-21.5-8.2-29.7,0c-8.2,8.2-8.2,21.5,0,29.7c8.2,8.2,21.5,8.2,29.7,0
					C260.1,490.7,260.1,477.4,251.8,469.2C251.9,469.2,251.8,469.2,251.8,469.2z M238.7,497h-3.5v-11.3H224v-3.5h11.3V471h3.5v11.3
					H250v3.5h-11.3L238.7,497z"/>
			</defs>
			<clipPath id="SVGID_6_">
				<use xlink:href="#SVGID_5_"  style="overflow:visible;"/>
			</clipPath>
			<g class="st10">
				<g>
					<defs>
						<rect id="SVGID_7_" x="-1115.7" y="153.6" width="1612.8" height="907.2"/>
					</defs>
					<clipPath id="SVGID_8_">
						<use xlink:href="#SVGID_7_"  style="overflow:visible;"/>
					</clipPath>
					<g class="st11">
						
							<rect x="211.8" y="458.8" transform="matrix(0.7071 -0.7071 0.7071 0.7071 -272.8245 309.3442)" class="st1" width="50.4" height="50.4"/>
					</g>
				</g>
				<path class="st12" d="M291-251c0,1.7-1.3,3-3,3s-3-1.3-3-3H291z M290-269.7c3,0.9,5,3.6,5,6.7v5h0.5c1.4,0,2.5,1.1,2.5,2.5
					c0,0,0,0,0,0c0,1.4-1.1,2.5-2.5,2.5h-15c-1.4,0-2.5-1.1-2.5-2.5c0,0,0,0,0,0c0-1.4,1.1-2.5,2.5-2.5h0.5v-5c0-3.1,2-5.8,5-6.7
					c0-0.1,0-0.2,0-0.3c0-1.1,0.9-2,2-2s2,0.9,2,2C290-269.9,290-269.8,290-269.7L290-269.7z"/>
				<g>
					<defs>
						<path id="SVGID_9_" d="M291-251c0,1.7-1.3,3-3,3s-3-1.3-3-3H291z M290-269.7c3,0.9,5,3.6,5,6.7v5h0.5c1.4,0,2.5,1.1,2.5,2.5
							c0,0,0,0,0,0c0,1.4-1.1,2.5-2.5,2.5h-15c-1.4,0-2.5-1.1-2.5-2.5c0,0,0,0,0,0c0-1.4,1.1-2.5,2.5-2.5h0.5v-5c0-3.1,2-5.8,5-6.7
							c0-0.1,0-0.2,0-0.3c0-1.1,0.9-2,2-2s2,0.9,2,2C290-269.9,290-269.8,290-269.7L290-269.7z"/>
					</defs>
					<clipPath id="SVGID_10_">
						<use xlink:href="#SVGID_9_"  style="overflow:visible;"/>
					</clipPath>
					<g class="st13">
						<rect x="69" y="-344.9" class="st12" width="811" height="759.3"/>
					</g>
				</g>
				<path class="st1" d="M5.2,577l-0.3,4.6l2.3-1.5l-0.9,11.3L5.9,582l-1.3,1.2l-0.8,0.7l-0.1-1.2L3.3,577H1v10
					c0,4.9,3.4,8.9,7.8,9.4v9H4.1v1.7h10.9v-1.6h-4.7v-9c4.3-0.4,7.8-4.4,7.8-9.4v-10H5.2z"/>
				<g>
					<defs>
						<path id="SVGID_11_" d="M5.2,577l-0.3,4.6l2.3-1.5l-0.9,11.3L5.9,582l-1.3,1.2l-0.8,0.7l-0.1-1.2L3.3,577H1v10
							c0,4.9,3.4,8.9,7.8,9.4v9H4.1v1.7h10.9v-1.6h-4.7v-9c4.3-0.4,7.8-4.4,7.8-9.4v-10H5.2z"/>
					</defs>
					<clipPath id="SVGID_12_">
						<use xlink:href="#SVGID_11_"  style="overflow:visible;"/>
					</clipPath>
					<g class="st14">
						<rect x="-669.8" y="182.4" class="st1" width="1360" height="845.6"/>
						<g>
							<defs>
								<rect id="SVGID_13_" x="-669.8" y="182.4" width="1360" height="845.6"/>
							</defs>
							<clipPath id="SVGID_14_">
								<use xlink:href="#SVGID_13_"  style="overflow:visible;"/>
							</clipPath>
							<g class="st15">
								<rect x="-2.5" y="573.1" class="st1" width="24.1" height="37.8"/>
							</g>
						</g>
						<polygon class="st16" points="64.7,635.3 77,628.2 89.3,635.3 77,642.4 						"/>
						<polygon class="st16" points="89.3,635.3 77,642.4 64.7,635.3 64.7,649.5 77,656.6 89.3,649.5 						"/>
						<polygon class="st16" points="64.7,616.3 77,609.2 89.3,616.3 77,623.4 						"/>
						<polygon class="st16" points="89.3,616.3 77,623.4 64.7,616.3 64.7,630.4 77,637.6 89.3,630.5 						"/>
						<line class="st17" x1="77" y1="637.6" x2="77" y2="623.4"/>
						<line class="st17" x1="77" y1="642.4" x2="77" y2="657.2"/>
						<polygon class="st16" points="115.8,635.4 128,628.4 140.2,635.4 128,642.4 						"/>
						<polygon class="st16" points="140.2,635.4 128,642.4 115.8,635.4 115.8,649.5 128,656.5 140.2,649.5 						"/>
						<polygon class="st16" points="115.8,616.5 128,609.5 140.2,616.5 128,623.6 						"/>
						<polygon class="st16" points="140.2,616.5 128,623.6 115.8,616.5 115.8,630.6 128,637.6 140.2,630.6 						"/>
						<line class="st18" x1="110.3" y1="609.7" x2="145.7" y2="656.3"/>
						<line class="st18" x1="145.7" y1="609.7" x2="110.3" y2="656.3"/>
						<g>
							<defs>
								<path id="SVGID_15_" d="M173,613.8l-0.5,5.9l3.2-1.9l-1.3,14.4l-0.5-12l-1.8,1.5l-1.1,0.9l-0.1-1.5l-0.6-7.3H167v12.8
									c0,6.2,4.8,11.4,10.9,12v11.5h-6.6v2.1h15.4v-2.1h-6.6v-11.5c6.2-0.5,10.9-5.7,10.9-12v-12.8H173z"/>
							</defs>
							<clipPath id="SVGID_16_">
								<use xlink:href="#SVGID_15_"  style="overflow:visible;"/>
							</clipPath>
							<g class="st19">
								<g>
									<defs>
										<rect id="SVGID_17_" x="-780" y="109.9" width="1920" height="1080"/>
									</defs>
									<clipPath id="SVGID_18_">
										<use xlink:href="#SVGID_17_"  style="overflow:visible;"/>
									</clipPath>
									<g class="st20">
										<rect x="162" y="608.8" class="st3" width="34" height="48.3"/>
									</g>
								</g>
								<polygon class="st21" points="13,621.3 26,613.8 39,621.3 26,628.8 								"/>
								<polygon class="st21" points="26,643.8 36.1,638 39,621.3 26,628.8 13,621.3 16,638.1 								"/>
								<line class="st22" x1="26" y1="628.8" x2="26" y2="636.4"/>
								<polygon class="st21" points="26,648.1 36.1,642.2 39,625.6 26,633.1 13,625.6 16,642.3 								"/>
								<line class="st22" x1="26" y1="633.1" x2="26" y2="640.6"/>
								<polygon class="st21" points="26,652.2 36.1,646.4 39,629.7 26,637.2 13,629.7 16,646.5 								"/>
								<line class="st22" x1="26" y1="637.2" x2="26" y2="652.1"/>
							</g>
						</g>
					</g>
				</g>
			</g>
		</g>
	</g>
</g>
<g>
	<defs>
		<path id="SVGID_19_" d="M254.9,38c4.5-1.3,8.6-4.4,11-8.9c5.2-9.4,1.2-17-8.8-22.5c-8.2-4.6-18.4-4.4-23.4,3.7
			c-2.9,4.7-3.4,10.1-2.1,14.9c0.3,0.9,0.1,1.9-0.4,2.6c-0.1,0.1-0.2,0.3-0.3,0.4c-0.8,1.5-1,3.3-0.6,5.1
			c5.2,1.7,11.4,4.8,18.1,10.3c1.8-0.6,3.2-1.7,4.1-3.3c0.1-0.1,0.2-0.3,0.2-0.4C253.3,38.9,254,38.3,254.9,38z M358.6,204.2
			C482,160.8,404.2,35.8,404.2,35.8c-23.6,1.1-35,17.3-35,17.3c17.3,32,17.9,52.7,14.2,65.4c-13.7-14.8-41.7-24.9-74-24.9
			c-31.2,0-58.5,9.5-72.6,23.5c-8-26.8,14.4-63.3,14.4-63.3C233.2,35.1,217.4,37,217.4,37c-72.7,121.8,24.8,161.1,42.2,167.1
			c-1.8-6.1-2.7-12.6-2.7-19.2c0-13.7,3.9-26.7,11.2-37.4c7.3-10.6,17.5-18.2,28.9-21.3c0.4-0.1,0.7-0.3,0.9-0.6
			c2.9-3.7,6.8-5.7,11-5.7c4.2,0,8,2,10.9,5.6c0.2,0.3,0.6,0.5,1,0.6c11.4,3,21.8,10.6,29.1,21.2c7.3,10.6,11.4,24,11.4,37.6
			C361.4,191.6,360.4,198.1,358.6,204.2z M309,143.8c0.1,0,0.2,0,0.3,0c11.6,0,22.6,4.8,32.7,14.4l6.1-3.1c-0.2-0.3-0.4-0.7-0.5-1
			c-1.8-3.1-3.9-6-6.2-8.6c-0.9-1-1.9-2-2.9-3c-1-1-2-1.9-3.1-2.7c-2.7-2.1-5.5-4-8.5-5.4c-2.4-1.2-4.9-2.1-7.5-2.8
			c-0.6-0.2-1.2-0.4-1.7-0.7c-0.2-0.1-0.4-0.2-0.5-0.3c-0.7-0.4-1.3-1-1.8-1.6c-1.7-2.1-3.9-3.4-6.4-3.4c-2.5,0-4.8,1.3-6.5,3.5
			c-1,1.3-2.4,2.2-3.9,2.6c-12.2,3.3-22.6,12.3-29,24.5l5,2.2C278.8,154.5,292,144,309,143.8z M371.8,42.3
			c4.2-3.4,10.1-7.3,17.9-9.7c0.7-2.3,0.5-4.7-0.7-6.5c-0.1-0.1-0.2-0.3-0.3-0.4c-0.6-0.7-0.8-1.7-0.6-2.6c1-4.9,0.1-10.2-3.1-14.7
			c-5.5-7.7-15.7-7.2-23.6-2c-9.5,6.2-13,14.1-7.1,23.1c2.8,4.3,7,7.1,11.6,8.1c0.9,0.2,1.7,0.8,2.1,1.6c0.1,0.1,0.2,0.3,0.3,0.4
			C369.1,40.8,370.3,41.8,371.8,42.3z M275.9,165.2l-8.7-3.7c-2.9,7.1-4.5,15.1-4.5,23.5c0,0.9,0,1.8,0.1,2.7c0,0.4,0.1,0.8,0.1,1.2
			c0,0.5,0.1,0.9,0.1,1.4c0,0.5,0.1,1.1,0.2,1.6c0,0.3,0.1,0.6,0.1,0.9c0.1,0.6,0.2,1.3,0.3,1.9c0,0.2,0.1,0.4,0.1,0.6
			c0.1,0.7,0.2,1.4,0.4,2.1c0,0.1,0,0.2,0.1,0.4c0.2,0.7,0.3,1.5,0.5,2.2c0,0.1,0,0.1,0,0.2c0.2,0.8,0.4,1.5,0.6,2.3c0,0,0,0,0,0.1
			c0.2,0.8,0.5,1.6,0.7,2.3c6.8,20.2,23.6,34.6,43.2,34.6c20.4,0,37.7-15.4,44-36.9c0,0,0,0,0-0.1c0.2-0.8,0.4-1.5,0.6-2.3
			c0-0.1,0-0.1,0-0.2c0.2-0.7,0.3-1.5,0.5-2.2c0-0.1,0-0.2,0.1-0.4c0.1-0.7,0.3-1.4,0.4-2.1c0-0.2,0.1-0.4,0.1-0.6
			c0.1-0.6,0.2-1.3,0.3-1.9c0-0.3,0.1-0.6,0.1-0.9c0.1-0.5,0.1-1.1,0.2-1.6c0-0.5,0.1-0.9,0.1-1.4c0-0.4,0.1-0.8,0.1-1.2
			c0-0.9,0.1-1.8,0.1-2.7c0-2.4-0.1-4.8-0.4-7.2c-0.2-1.6-0.4-3.1-0.7-4.6c-0.8-4.5-2.2-8.7-3.9-12.7l-9.8,4.9l-1.5-1.5
			c-9.4-9.4-19.5-14.2-30.1-14.2c-0.1,0-0.1,0-0.2,0c-18,0.1-31.8,14-31.9,14.2L275.9,165.2z"/>
	</defs>
	<clipPath id="SVGID_20_">
		<use xlink:href="#SVGID_19_"  style="overflow:visible;"/>
	</clipPath>
	<rect x="182.9" y="-5.4" class="st23" width="253.5" height="252.9"/>
</g>
<g>
	<g>
		<defs>
			<polygon id="SVGID_21_" points="65.1,635.4 77.3,628.3 89.6,635.4 77.3,642.5 			"/>
		</defs>
		<clipPath id="SVGID_22_">
			<use xlink:href="#SVGID_21_"  style="overflow:visible;"/>
		</clipPath>
		<rect x="60.1" y="623.3" class="st24" width="34.6" height="24.2"/>
	</g>
	<polygon class="st25" points="65.1,635.4 77.3,628.3 89.6,635.4 77.3,642.5 	"/>
	<g>
		<defs>
			<polygon id="SVGID_23_" points="89.6,635.4 77.3,642.5 65.1,635.4 65.1,649.6 77.3,656.7 89.6,649.6 			"/>
		</defs>
		<clipPath id="SVGID_24_">
			<use xlink:href="#SVGID_23_"  style="overflow:visible;"/>
		</clipPath>
		<rect x="60.1" y="630.4" class="st26" width="34.6" height="31.3"/>
	</g>
	<polygon class="st25" points="89.6,635.4 77.3,642.5 65.1,635.4 65.1,649.6 77.3,656.7 89.6,649.6 	"/>
	<g>
		<defs>
			<polygon id="SVGID_25_" points="65.1,616.4 77.3,609.3 89.6,616.4 77.3,623.5 			"/>
		</defs>
		<clipPath id="SVGID_26_">
			<use xlink:href="#SVGID_25_"  style="overflow:visible;"/>
		</clipPath>
		<rect x="60.1" y="604.3" class="st27" width="34.6" height="24.2"/>
	</g>
	<polygon class="st25" points="65.1,616.4 77.3,609.3 89.6,616.4 77.3,623.5 	"/>
	<g>
		<defs>
			<polygon id="SVGID_27_" points="89.6,616.4 77.3,623.5 65.1,616.4 65.1,630.5 77.3,637.7 89.6,630.6 			"/>
		</defs>
		<clipPath id="SVGID_28_">
			<use xlink:href="#SVGID_27_"  style="overflow:visible;"/>
		</clipPath>
		<rect x="60.1" y="611.4" class="st28" width="34.6" height="31.3"/>
	</g>
	<polygon class="st25" points="89.6,616.4 77.3,623.5 65.1,616.4 65.1,630.5 77.3,637.7 89.6,630.6 	"/>
	<g>
		<defs>
			<line id="SVGID_29_" x1="77.3" y1="637.7" x2="77.3" y2="623.5"/>
		</defs>
		<clipPath id="SVGID_30_">
			<use xlink:href="#SVGID_29_"  style="overflow:visible;"/>
		</clipPath>
		<rect x="72.3" y="618.5" class="st29" width="10" height="24.2"/>
	</g>
	<line class="st25" x1="77.3" y1="637.7" x2="77.3" y2="623.5"/>
	<g>
		<defs>
			<line id="SVGID_31_" x1="77.3" y1="642.5" x2="77.3" y2="657.3"/>
		</defs>
		<clipPath id="SVGID_32_">
			<use xlink:href="#SVGID_31_"  style="overflow:visible;"/>
		</clipPath>
		<rect x="72.3" y="637.5" class="st30" width="10" height="24.7"/>
	</g>
	<line class="st25" x1="77.3" y1="642.5" x2="77.3" y2="657.3"/>
	<g>
		<defs>
			<polygon id="SVGID_33_" points="116.2,635.5 128.3,628.5 140.5,635.5 128.3,642.5 			"/>
		</defs>
		<clipPath id="SVGID_34_">
			<use xlink:href="#SVGID_33_"  style="overflow:visible;"/>
		</clipPath>
		<rect x="111.2" y="623.5" class="st31" width="34.3" height="24"/>
	</g>
	<polygon class="st25" points="116.2,635.5 128.3,628.5 140.5,635.5 128.3,642.5 	"/>
	<g>
		<defs>
			<polygon id="SVGID_35_" points="140.5,635.5 128.3,642.5 116.2,635.5 116.2,649.6 128.3,656.6 140.5,649.6 			"/>
		</defs>
		<clipPath id="SVGID_36_">
			<use xlink:href="#SVGID_35_"  style="overflow:visible;"/>
		</clipPath>
		<rect x="111.2" y="630.5" class="st32" width="34.3" height="31.1"/>
	</g>
	<polygon class="st25" points="140.5,635.5 128.3,642.5 116.2,635.5 116.2,649.6 128.3,656.6 140.5,649.6 	"/>
	<g>
		<defs>
			<polygon id="SVGID_37_" points="116.2,616.6 128.3,609.6 140.5,616.6 128.3,623.6 			"/>
		</defs>
		<clipPath id="SVGID_38_">
			<use xlink:href="#SVGID_37_"  style="overflow:visible;"/>
		</clipPath>
		<rect x="111.2" y="604.6" class="st33" width="34.3" height="24"/>
	</g>
	<polygon class="st25" points="116.2,616.6 128.3,609.6 140.5,616.6 128.3,623.6 	"/>
	<g>
		<defs>
			<polygon id="SVGID_39_" points="140.5,616.6 128.3,623.6 116.2,616.6 116.2,630.7 128.3,637.7 140.5,630.7 			"/>
		</defs>
		<clipPath id="SVGID_40_">
			<use xlink:href="#SVGID_39_"  style="overflow:visible;"/>
		</clipPath>
		<rect x="111.2" y="611.6" class="st34" width="34.3" height="31.1"/>
	</g>
	<polygon class="st25" points="140.5,616.6 128.3,623.6 116.2,616.6 116.2,630.7 128.3,637.7 140.5,630.7 	"/>
	<g>
		<defs>
			<line id="SVGID_41_" x1="110.6" y1="609.8" x2="146" y2="656.4"/>
		</defs>
		<clipPath id="SVGID_42_">
			<use xlink:href="#SVGID_41_"  style="overflow:visible;"/>
		</clipPath>
		<rect x="105.6" y="604.8" class="st35" width="45.4" height="56.6"/>
	</g>
	<line class="st36" x1="110.6" y1="609.8" x2="146" y2="656.4"/>
	<g>
		<defs>
			<line id="SVGID_43_" x1="146" y1="609.8" x2="110.6" y2="656.4"/>
		</defs>
		<clipPath id="SVGID_44_">
			<use xlink:href="#SVGID_43_"  style="overflow:visible;"/>
		</clipPath>
		<rect x="105.6" y="604.8" class="st37" width="45.4" height="56.6"/>
	</g>
	<line class="st36" x1="146" y1="609.8" x2="110.6" y2="656.4"/>
	<g>
		<defs>
			<polygon id="SVGID_45_" points="13.3,621.4 26.3,613.9 39.3,621.4 26.3,628.9 			"/>
		</defs>
		<clipPath id="SVGID_46_">
			<use xlink:href="#SVGID_45_"  style="overflow:visible;"/>
		</clipPath>
		<rect x="8.3" y="608.9" class="st38" width="36" height="25"/>
	</g>
	<polygon class="st39" points="13.3,621.4 26.3,613.9 39.3,621.4 26.3,628.9 	"/>
	<g>
		<defs>
			<polygon id="SVGID_47_" points="26.3,643.9 36.4,638.1 39.3,621.4 26.3,628.9 13.3,621.4 16.4,638.2 			"/>
		</defs>
		<clipPath id="SVGID_48_">
			<use xlink:href="#SVGID_47_"  style="overflow:visible;"/>
		</clipPath>
		<rect x="8.3" y="616.4" class="st40" width="36" height="32.5"/>
	</g>
	<polygon class="st39" points="26.3,643.9 36.4,638.1 39.3,621.4 26.3,628.9 13.3,621.4 16.4,638.2 	"/>
	<line class="st39" x1="26.3" y1="628.9" x2="26.3" y2="636.4"/>
	<g>
		<defs>
			<polygon id="SVGID_49_" points="26.3,648.2 36.4,642.3 39.3,625.7 26.3,633.2 13.3,625.7 16.4,642.4 			"/>
		</defs>
		<clipPath id="SVGID_50_">
			<use xlink:href="#SVGID_49_"  style="overflow:visible;"/>
		</clipPath>
		<rect x="8.3" y="620.7" class="st41" width="36" height="32.5"/>
	</g>
	<polygon class="st39" points="26.3,648.2 36.4,642.3 39.3,625.7 26.3,633.2 13.3,625.7 16.4,642.4 	"/>
	<line class="st39" x1="26.3" y1="633.2" x2="26.3" y2="640.7"/>
	<g>
		<defs>
			<polygon id="SVGID_51_" points="26.3,652.3 36.4,646.5 39.3,629.8 26.3,637.3 13.3,629.8 16.4,646.6 			"/>
		</defs>
		<clipPath id="SVGID_52_">
			<use xlink:href="#SVGID_51_"  style="overflow:visible;"/>
		</clipPath>
		<rect x="8.3" y="624.8" class="st42" width="36" height="32.5"/>
	</g>
	<polygon class="st39" points="26.3,652.3 36.4,646.5 39.3,629.8 26.3,637.3 13.3,629.8 16.4,646.6 	"/>
	<line class="st39" x1="26.3" y1="637.3" x2="26.3" y2="652.2"/>
</g>
<g>
	<defs>
		<path id="SVGID_53_" d="M469.3,10.6c1.2-0.4,2.3-1.2,3-2.4c1.4-2.5,0.3-4.6-2.4-6.1c-2.2-1.2-5-1.2-6.3,1c-0.8,1.3-0.9,2.7-0.6,4
			c0.1,0.2,0,0.5-0.1,0.7c0,0,0,0.1-0.1,0.1c-0.2,0.4-0.3,0.9-0.2,1.4c1.4,0.5,3.1,1.3,4.9,2.8c0.5-0.2,0.9-0.5,1.1-0.9
			c0,0,0-0.1,0.1-0.1C468.8,10.8,469,10.7,469.3,10.6z M497.3,55.5C530.6,43.7,509.6,10,509.6,10c-6.4,0.3-9.5,4.7-9.5,4.7
			c4.7,8.6,4.8,14.2,3.8,17.7c-3.7-4-11.3-6.7-20-6.7c-8.4,0-15.8,2.6-19.6,6.3c-2.2-7.2,3.9-17.1,3.9-17.1
			c-4.9-5.1-9.1-4.5-9.1-4.5c-19.6,32.9,6.7,43.5,11.4,45.1c-0.5-1.7-0.7-3.4-0.7-5.2c0-3.7,1-7.2,3-10.1c2-2.9,4.7-4.9,7.8-5.7
			c0.1,0,0.2-0.1,0.3-0.2c0.8-1,1.8-1.6,3-1.6c1.1,0,2.2,0.5,2.9,1.5c0.1,0.1,0.2,0.1,0.3,0.2c3.1,0.8,5.9,2.9,7.9,5.7
			c2,2.9,3.1,6.5,3.1,10.2C498,52.1,497.8,53.8,497.3,55.5z M483.9,39.2C483.9,39.2,483.9,39.2,483.9,39.2c3.2,0,6.2,1.3,8.9,3.9
			l1.7-0.8c0-0.1-0.1-0.2-0.1-0.3c-0.5-0.8-1.1-1.6-1.7-2.3c-0.2-0.3-0.5-0.6-0.8-0.8c-0.3-0.3-0.5-0.5-0.8-0.7
			c-0.7-0.6-1.5-1.1-2.3-1.5c-0.7-0.3-1.3-0.6-2-0.8c-0.2,0-0.3-0.1-0.5-0.2c0,0-0.1-0.1-0.1-0.1c-0.2-0.1-0.3-0.3-0.5-0.4
			c-0.5-0.6-1.1-0.9-1.7-0.9c-0.7,0-1.3,0.4-1.8,1c-0.3,0.3-0.6,0.6-1.1,0.7c-3.3,0.9-6.1,3.3-7.8,6.6l1.3,0.6
			C475.7,42,479.3,39.2,483.9,39.2z M500.8,11.7c1.1-0.9,2.7-2,4.8-2.6c0.2-0.6,0.1-1.3-0.2-1.8c0,0-0.1-0.1-0.1-0.1
			c-0.2-0.2-0.2-0.5-0.2-0.7c0.3-1.3,0-2.8-0.8-4c-1.5-2.1-4.2-1.9-6.4-0.5c-2.6,1.7-3.5,3.8-1.9,6.2c0.8,1.2,1.9,1.9,3.1,2.2
			c0.2,0.1,0.5,0.2,0.6,0.4c0,0,0,0.1,0.1,0.1C500.1,11.4,500.4,11.6,500.8,11.7z M474.9,44.9l-2.3-1c-0.8,1.9-1.2,4.1-1.2,6.3
			c0,0.2,0,0.5,0,0.7c0,0.1,0,0.2,0,0.3c0,0.1,0,0.3,0,0.4c0,0.1,0,0.3,0,0.4c0,0.1,0,0.2,0,0.3c0,0.2,0,0.3,0.1,0.5
			c0,0.1,0,0.1,0,0.2c0,0.2,0.1,0.4,0.1,0.6c0,0,0,0.1,0,0.1c0,0.2,0.1,0.4,0.1,0.6c0,0,0,0,0,0.1c0.1,0.2,0.1,0.4,0.2,0.6
			c0,0,0,0,0,0c0.1,0.2,0.1,0.4,0.2,0.6c1.8,5.5,6.4,9.3,11.7,9.3c5.5,0,10.2-4.2,11.9-10c0,0,0,0,0,0c0.1-0.2,0.1-0.4,0.2-0.6
			c0,0,0,0,0,0c0-0.2,0.1-0.4,0.1-0.6c0,0,0-0.1,0-0.1c0-0.2,0.1-0.4,0.1-0.6c0-0.1,0-0.1,0-0.2c0-0.2,0.1-0.3,0.1-0.5
			c0-0.1,0-0.2,0-0.3c0-0.1,0-0.3,0-0.4c0-0.1,0-0.3,0-0.4c0-0.1,0-0.2,0-0.3c0-0.2,0-0.5,0-0.7c0-0.7,0-1.3-0.1-1.9
			c0-0.4-0.1-0.8-0.2-1.3c-0.2-1.2-0.6-2.4-1-3.4l-2.6,1.3l-0.4-0.4c-2.5-2.5-5.3-3.8-8.1-3.8c0,0,0,0-0.1,0c-4.9,0-8.6,3.8-8.6,3.8
			L474.9,44.9z"/>
	</defs>
	<clipPath id="SVGID_54_">
		<use xlink:href="#SVGID_53_"  style="overflow:visible;"/>
	</clipPath>
	<rect x="449.8" y="-1.1" class="st43" width="68.4" height="68.3"/>
</g>
<g>
	<defs>
		<path id="SVGID_55_" d="M5.2,577l-0.3,4.6l2.3-1.5l-0.9,11.3L5.9,582l-1.3,1.2l-0.8,0.7l-0.1-1.2L3.3,577H1v10
			c0,4.9,3.4,8.9,7.8,9.4v9H4.1v1.7h10.9v-1.6h-4.7v-9c4.3-0.4,7.8-4.4,7.8-9.4v-10H5.2z"/>
	</defs>
	<clipPath id="SVGID_56_">
		<use xlink:href="#SVGID_55_"  style="overflow:visible;"/>
	</clipPath>
	<rect x="-4" y="572" class="st44" width="27" height="40"/>
</g>
</svg>
