<?xml version="1.0" encoding="utf-8"?>
<!-- Generator: Adobe Illustrator 22.1.0, SVG Export Plug-In . SVG Version: 6.00 Build 0)  -->
<svg version="1.1" id="content" xmlns="http://www.w3.org/2000/svg" xmlns:xlink="http://www.w3.org/1999/xlink" x="0px" y="0px"
	 width="573px" height="752px" viewBox="0 0 573 752" style="enable-background:new 0 0 573 752;" xml:space="preserve">
<style type="text/css">
	.st0{fill:#D7D8D8;}
	.st1{fill:#979797;}
	.st2{fill:#4D5055;}
	.st3{fill:#FFFFFF;}
	.st4{fill:#0390FF;}
	.st5{fill:#555555;}
	.st6{fill:#F2F2F2;}
	.st7{fill:#FF0000;}
	.st8{clip-path:url(#SVGID_2_);}
	.st9{clip-path:url(#SVGID_4_);}
	.st10{clip-path:url(#SVGID_6_);}
	.st11{clip-path:url(#SVGID_8_);}
	.st12{fill:#333333;}
	.st13{clip-path:url(#SVGID_10_);}
	.st14{clip-path:url(#SVGID_12_);}
	.st15{clip-path:url(#SVGID_14_);}
	.st16{fill:#FFFFFF;stroke:#EC6520;stroke-width:2;stroke-linejoin:round;}
	.st17{fill:none;stroke:#EC6520;stroke-width:2;stroke-linejoin:round;}
	.st18{fill:none;stroke:#EC6520;stroke-width:3;stroke-linecap:round;stroke-linejoin:round;}
	.st19{clip-path:url(#SVGID_16_);}
	.st20{clip-path:url(#SVGID_18_);}
	.st21{fill:#FFFFFF;stroke:#F36F36;stroke-width:2;stroke-linejoin:round;}
	.st22{fill:none;stroke:#F36F36;stroke-width:2;stroke-linejoin:round;}
	.st23{clip-path:url(#SVGID_20_);fill:#FFFFFF;}
	.st24{fill:none;stroke:#EC6520;stroke-width:2;stroke-linejoin:round;stroke-miterlimit:10;}
	.st25{clip-path:url(#SVGID_22_);fill:#FFFFFF;}
	.st26{clip-path:url(#SVGID_24_);fill:#FFFFFF;}
	.st27{clip-path:url(#SVGID_26_);fill:#FFFFFF;}
	.st28{clip-path:url(#SVGID_28_);fill:#FFFFFF;}
	.st29{clip-path:url(#SVGID_30_);fill:#FFFFFF;}
	.st30{clip-path:url(#SVGID_32_);fill:#FFFFFF;}
	.st31{clip-path:url(#SVGID_34_);fill:#FFFFFF;}
	.st32{clip-path:url(#SVGID_36_);fill:#FFFFFF;}
	.st33{clip-path:url(#SVGID_38_);fill:#FFFFFF;}
	.st34{clip-path:url(#SVGID_40_);fill:#FFFFFF;}
	.st35{fill:none;stroke:#EC6520;stroke-width:3;stroke-linecap:round;stroke-linejoin:round;stroke-miterlimit:10;}
	.st36{clip-path:url(#SVGID_42_);fill:#FFFFFF;}
	.st37{clip-path:url(#SVGID_44_);fill:#FFFFFF;}
	.st38{fill:none;stroke:#F36F36;stroke-width:2;stroke-linejoin:round;stroke-miterlimit:10;}
	.st39{clip-path:url(#SVGID_46_);fill:#FFFFFF;}
	.st40{clip-path:url(#SVGID_48_);fill:#FFFFFF;}
	.st41{clip-path:url(#SVGID_50_);fill:#FFFFFF;}
	.st42{clip-path:url(#SVGID_52_);fill:#979797;}
	.st43{clip-path:url(#SVGID_54_);fill:#979797;}
	.st44{clip-path:url(#SVGID_56_);fill:#979797;}
	.st45{clip-path:url(#SVGID_58_);}
	.st46{clip-path:url(#SVGID_60_);}
	.st47{clip-path:url(#SVGID_62_);}
	.st48{clip-path:url(#SVGID_64_);}
	.st49{clip-path:url(#SVGID_66_);}
	.st50{clip-path:url(#SVGID_68_);}
	.st51{clip-path:url(#SVGID_70_);}
	.st52{clip-path:url(#SVGID_72_);}
	.st53{clip-path:url(#SVGID_74_);fill:#FFFFFF;}
	.st54{fill:#A6A6A6;}
	.st55{filter:url(#Adobe_OpacityMaskFilter);}
	.st56{mask:url(#mask-2_2_);fill:#A6A6A6;}
	.st57{fill:#FFFFFF;stroke:#6C6C6C;stroke-width:2;}
	.st58{fill:#F0F0F0;stroke:#6C6C6C;}
</style>
<title>BOI icons</title>
<rect x="22" y="260" class="st0" width="100" height="100"/>
<path class="st1" d="M116.4,265.6v88.7H27.6v-88.7H116.4 M122,260H22v100h100V260z"/>
<g>
	<rect x="165" y="260" class="st2" width="100" height="100"/>
	<polygon class="st3" points="207.9,328.6 189.2,312 192.3,308.5 207.8,322.2 237.6,292.9 240.9,296.3 	"/>
</g>
<g>
	<rect x="308" y="260" class="st4" width="100" height="100"/>
	<polygon class="st3" points="390.4,307.4 334.7,307.4 348.9,293.4 345.6,290.1 325.4,310 345.6,329.9 348.9,326.6 334.3,312.2 
		390.4,312.2 	"/>
</g>
<g>
	<ellipse class="st1" cx="59.1" cy="31.8" rx="30.8" ry="30.8"/>
	<path class="st1" d="M111.2,119.2C103.8,93.8,83,71.6,59.1,71.6S16.4,93.8,9,119.2s-9,45-7.3,69.3s8,43.7,12.6,44.6
		s19.2,4.9,44.7,4.9s40.1-4,44.7-4.9s9.5-16.1,12.4-44.6S118.6,144.6,111.2,119.2z"/>
</g>
<path class="st3" d="M41,382c-22.1,0-40,17.9-40,40s17.9,40,40,40s40-17.9,40-40S63.1,382,41,382z M41,458c-19.9,0-36-16.1-36-36
	s16.1-36,36-36s36,16.1,36,36l0,0C77,441.9,60.9,458,41,458z"/>
<path class="st3" d="M45.8,402.1h-5.5c-1.3,0.8-2.7,1.4-4.1,2c-1.7,0.6-3.5,1.1-5.3,1.4v4.6h7.5v26.8h-9.1v6h24.5v-6h-8V402.1z"/>
<path class="st3" d="M122,382c-22.1,0-40,17.9-40,40s17.9,40,40,40s40-17.9,40-40S144.1,382,122,382z M122,458
	c-19.9,0-36-16.1-36-36s16.1-36,36-36s36,16.1,36,36l0,0C158,441.9,141.9,458,122,458z"/>
<path class="st3" d="M122.2,436.7c-1.2,0.1-2.4,0.2-3.5,0.3c2-2.1,3.9-4.2,5.7-6.2c1.7-1.9,3.2-3.8,4.7-5.9c1.3-1.8,2.3-3.6,3.2-5.6
	c0.8-1.7,1.2-3.6,1.2-5.5c0-1.8-0.3-3.5-0.9-5.1c-1.2-3-3.6-5.4-6.6-6.5c-1.7-0.6-3.5-0.9-5.3-0.9c-2.5-0.1-5,0.5-7.2,1.6
	c-2.2,1.2-4.1,2.8-5.8,4.6l4.1,4.1c1.1-1.2,2.3-2.3,3.6-3.2c1.3-0.9,2.8-1.4,4.3-1.3c1.9-0.1,3.7,0.6,5,1.9c1.2,1.4,1.8,3.3,1.7,5.2
	c0,1.7-0.5,3.4-1.3,4.9c-1,2-2.3,3.8-3.7,5.5c-1.6,2-3.5,4.1-5.8,6.4c-2.3,2.3-4.8,4.8-7.6,7.6v4.3h27.5v-6.3h-10
	C124.6,436.6,123.5,436.6,122.2,436.7z"/>
<path class="st3" d="M19,506c-9.9,0-18,8.1-18,18s8.1,18,18,18s18-8.1,18-18S28.9,506,19,506z M16.4,531.3L9,524.7l2-2.2l5.3,4.7
	l10.6-10.5l2.1,2.1L16.4,531.3z"/>
<path class="st3" d="M56,506c-9.9,0-18,8.1-18,18s8.1,18,18,18s18-8.1,18-18S65.9,506,56,506z M65,530.8l-2.1,2.1l-6.8-6.8l-6.8,6.8
	l-2.1-2.1l6.8-6.8l-6.8-6.8l2.1-2.1l6.8,6.8l6.8-6.8l2.1,2.1l-6.8,6.8L65,530.8z"/>
<path class="st1" d="M52.8,578.8c0-1.4-0.4-1.8-1.8-1.8c-2.2,0-4.5,0-6.7,0h-3.6c-0.1,0-0.2,0.1-0.3,0.2c-0.2,0.2-0.2,0.4-0.2,0.6
	c0,2.3-1.8,4.1-4.1,4.1l0,0c-2.3,0-4.1-1.8-4.1-4.1c0-0.2-0.1-0.4-0.2-0.6c-0.1-0.1-0.2-0.1-0.3-0.2h-3.6c-2.2,0-4.5,0-6.7,0
	c-1.4,0-1.8,0.4-1.8,1.8c0.1,8.4,0.1,7.9,0,16.3c0,1.4,0.4,1.8,1.8,1.8c5,0,10,0,15,0s10,0,15,0c1.4,0,1.8-0.4,1.8-1.8
	C52.8,586.8,52.8,587.2,52.8,578.8z"/>
<path class="st1" d="M91.7,592.3l-2.6-1.1c-4.1-1.8-11.1-5-13.8-6.2c-0.1-0.1-0.1-0.1-0.2-0.2c-0.9-1.4,1-1.9,1.6-2.9
	c0.8-1.1,0.8-2.5,0-3.6c-0.7-1-1.9-1.5-3.1-1.3c-1.3,0.2-2.3,1.1-2.6,2.4c-0.1,0.5-0.2,1.1,0.4,1.3c0.7,0.3,1-0.1,1.1-0.7
	c0-0.9,0.8-1.5,1.6-1.5c0,0,0.1,0,0.1,0c0.6,0,1.1,0.4,1.3,1c0.3,0.8-0.1,1.7-0.9,2.2c-0.7,0.5-1.5,1.1-1.4,2c0.1,0.5-0.1,1-0.5,1.3
	c-3.1,1.4-14.1,6.1-16.7,7.3c-1.1,0.5-2.2,1-2.2,2.1c0,0,0,0.1,0,0.1c0,0,0,0.1,0,0.1c0,0.1,0,0.3,0.1,0.4c0,0,0,0.1,0,0.1
	c0.4,1.6,1.8,1.7,3.3,1.7h0.5c0.1,0,0.3,0,0.4,0c8.4,0,16.9,0,25.3,0v0c2.3,0,4.6,0,6.9,0c1.5,0,2.9-0.1,3.3-1.7
	c0.1-0.2,0.1-0.4,0.1-0.6C94,593.4,92.9,592.8,91.7,592.3 M74,595.4c-5.4,0-10.8,0-16.2,0c0,0-0.1,0-0.1,0h-0.4c-0.1,0-0.3,0-0.4,0
	c-0.3,0-0.6-0.3-0.6-0.6c-0.2-0.8,0.8-0.9,1.3-1.1c5.2-2.3,10.4-4.6,15.6-6.9c0.8-0.4,1.6-0.4,2.4,0c4,1.8,8,3.6,12,5.4
	c1.7,0.8,3.1,1.4,3.7,1.7c0.4,0.2,1.1,0.3,1.2,0.8c0,0.1,0,0.2,0,0.2c-0.2,0.7-0.9,0.6-1.5,0.6C85.2,595.4,79.6,595.4,74,595.4"/>
<path class="st5" d="M1,543v33h33v-33H1z M32,574H3v-29h29V574z"/>
<rect x="8" y="558.5" class="st5" width="19" height="2"/>
<rect x="8" y="551.5" class="st5" width="19" height="2"/>
<rect x="8" y="565.5" class="st5" width="19" height="2"/>
<polygon class="st1" points="91.6,496.8 106.9,481.3 107.9,480.4 108,480.5 108.1,480.4 109.1,481.3 124.4,496.8 129,492.2 
	108,471.2 87,492.2 "/>
<polygon class="st6" points="134.6,496.8 149.9,481.3 150.9,480.4 151,480.5 151.1,480.4 152.1,481.3 167.4,496.8 172,492.2 
	151,471.2 130,492.2 "/>
<polygon class="st1" points="38.4,471.2 23.1,486.7 22.1,487.6 22,487.5 21.9,487.6 20.9,486.7 5.6,471.2 1,475.8 22,496.8 
	43,475.8 "/>
<polygon class="st6" points="81.4,471.2 66.1,486.7 65.1,487.6 65,487.5 64.9,487.6 63.9,486.7 48.6,471.2 44,475.8 65,496.8 
	86,475.8 "/>
<g>
	<ellipse class="st1" cx="134.9" cy="9.3" rx="8.3" ry="8.3"/>
	<path class="st1" d="M149,32.9c-2-6.9-7.6-12.8-14.1-12.8c-6.5,0-11.5,6-13.5,12.8c-1.9,6-2.5,12.4-2,18.7c0.5,6.6,2.2,11.8,3.4,12
		c7.9,1.8,16.2,1.8,24.1,0c1.2-0.2,2.6-4.3,3.4-12S150.9,39.8,149,32.9z"/>
</g>
<g>
	<rect x="451" y="260" class="st7" width="100" height="100"/>
	<polygon class="st3" points="519.1,295.3 515.7,291.9 501,306.7 486.3,291.9 482.9,295.3 497.7,310 482.9,324.7 486.3,328.1 
		501,313.3 515.7,328.1 519.1,324.7 504.3,310 	"/>
</g>
<g>
	<defs>
		<path id="SVGID_1_" d="M208.8,469.2c-8.2-8.2-21.5-8.2-29.7,0c-8.2,8.2-8.2,21.5,0,29.7c8.2,8.2,21.5,8.2,29.7,0
			C217.1,490.7,217.1,477.4,208.8,469.2C208.9,469.2,208.8,469.2,208.8,469.2z M192.2,485.8H181v-3.5H207v3.5H192.2L192.2,485.8z"/>
	</defs>
	<clipPath id="SVGID_2_">
		<use xlink:href="#SVGID_1_"  style="overflow:visible;"/>
	</clipPath>
	<g class="st8">
		<g>
			<defs>
				<rect id="SVGID_3_" x="-948.7" y="153.6" width="1612.8" height="907.2"/>
			</defs>
			<clipPath id="SVGID_4_">
				<use xlink:href="#SVGID_3_"  style="overflow:visible;"/>
			</clipPath>
			<g class="st9">
				
					<rect x="168.8" y="458.8" transform="matrix(0.7071 -0.7071 0.7071 0.7071 -285.4185 278.9388)" class="st1" width="50.4" height="50.4"/>
			</g>
		</g>
		<g>
			<defs>
				<path id="SVGID_5_" d="M251.8,469.2c-8.2-8.2-21.5-8.2-29.7,0c-8.2,8.2-8.2,21.5,0,29.7c8.2,8.2,21.5,8.2,29.7,0
					C260.1,490.7,260.1,477.4,251.8,469.2C251.9,469.2,251.8,469.2,251.8,469.2z M238.7,497h-3.5v-11.3H224v-3.5h11.3V471h3.5v11.3
					H250v3.5h-11.3L238.7,497z"/>
			</defs>
			<clipPath id="SVGID_6_">
				<use xlink:href="#SVGID_5_"  style="overflow:visible;"/>
			</clipPath>
			<g class="st10">
				<g>
					<defs>
						<rect id="SVGID_7_" x="-1115.7" y="153.6" width="1612.8" height="907.2"/>
					</defs>
					<clipPath id="SVGID_8_">
						<use xlink:href="#SVGID_7_"  style="overflow:visible;"/>
					</clipPath>
					<g class="st11">
						
							<rect x="211.8" y="458.8" transform="matrix(0.7071 -0.7071 0.7071 0.7071 -272.8245 309.3442)" class="st1" width="50.4" height="50.4"/>
					</g>
				</g>
				<path class="st12" d="M291-251c0,1.7-1.3,3-3,3s-3-1.3-3-3H291z M290-269.7c3,0.9,5,3.6,5,6.7v5h0.5c1.4,0,2.5,1.1,2.5,2.5
					c0,0,0,0,0,0c0,1.4-1.1,2.5-2.5,2.5h-15c-1.4,0-2.5-1.1-2.5-2.5c0,0,0,0,0,0c0-1.4,1.1-2.5,2.5-2.5h0.5v-5c0-3.1,2-5.8,5-6.7
					c0-0.1,0-0.2,0-0.3c0-1.1,0.9-2,2-2s2,0.9,2,2C290-269.9,290-269.8,290-269.7L290-269.7z"/>
				<g>
					<defs>
						<path id="SVGID_9_" d="M291-251c0,1.7-1.3,3-3,3s-3-1.3-3-3H291z M290-269.7c3,0.9,5,3.6,5,6.7v5h0.5c1.4,0,2.5,1.1,2.5,2.5
							c0,0,0,0,0,0c0,1.4-1.1,2.5-2.5,2.5h-15c-1.4,0-2.5-1.1-2.5-2.5c0,0,0,0,0,0c0-1.4,1.1-2.5,2.5-2.5h0.5v-5c0-3.1,2-5.8,5-6.7
							c0-0.1,0-0.2,0-0.3c0-1.1,0.9-2,2-2s2,0.9,2,2C290-269.9,290-269.8,290-269.7L290-269.7z"/>
					</defs>
					<clipPath id="SVGID_10_">
						<use xlink:href="#SVGID_9_"  style="overflow:visible;"/>
					</clipPath>
					<g class="st13">
						<rect x="69" y="-344.9" class="st12" width="811" height="759.3"/>
					</g>
				</g>
				<path class="st1" d="M5.2,577l-0.3,4.6l2.3-1.5l-0.9,11.3L5.9,582l-1.3,1.2l-0.8,0.7l-0.1-1.2L3.3,577H1v10
					c0,4.9,3.4,8.9,7.8,9.4v9H4.1v1.7h10.9v-1.6h-4.7v-9c4.3-0.4,7.8-4.4,7.8-9.4v-10H5.2z"/>
				<g>
					<defs>
						<path id="SVGID_11_" d="M5.2,577l-0.3,4.6l2.3-1.5l-0.9,11.3L5.9,582l-1.3,1.2l-0.8,0.7l-0.1-1.2L3.3,577H1v10
							c0,4.9,3.4,8.9,7.8,9.4v9H4.1v1.7h10.9v-1.6h-4.7v-9c4.3-0.4,7.8-4.4,7.8-9.4v-10H5.2z"/>
					</defs>
					<clipPath id="SVGID_12_">
						<use xlink:href="#SVGID_11_"  style="overflow:visible;"/>
					</clipPath>
					<g class="st14">
						<rect x="-669.8" y="182.4" class="st1" width="1360" height="845.6"/>
						<g>
							<defs>
								<rect id="SVGID_13_" x="-669.8" y="182.4" width="1360" height="845.6"/>
							</defs>
							<clipPath id="SVGID_14_">
								<use xlink:href="#SVGID_13_"  style="overflow:visible;"/>
							</clipPath>
							<g class="st15">
								<rect x="-2.5" y="573.1" class="st1" width="24.1" height="37.8"/>
							</g>
						</g>
						<polygon class="st16" points="64.7,635.3 77,628.2 89.3,635.3 77,642.4 						"/>
						<polygon class="st16" points="89.3,635.3 77,642.4 64.7,635.3 64.7,649.5 77,656.6 89.3,649.5 						"/>
						<polygon class="st16" points="64.7,616.3 77,609.2 89.3,616.3 77,623.4 						"/>
						<polygon class="st16" points="89.3,616.3 77,623.4 64.7,616.3 64.7,630.4 77,637.6 89.3,630.5 						"/>
						<line class="st17" x1="77" y1="637.6" x2="77" y2="623.4"/>
						<line class="st17" x1="77" y1="642.4" x2="77" y2="657.2"/>
						<polygon class="st16" points="115.8,635.4 128,628.4 140.2,635.4 128,642.4 						"/>
						<polygon class="st16" points="140.2,635.4 128,642.4 115.8,635.4 115.8,649.5 128,656.5 140.2,649.5 						"/>
						<polygon class="st16" points="115.8,616.5 128,609.5 140.2,616.5 128,623.6 						"/>
						<polygon class="st16" points="140.2,616.5 128,623.6 115.8,616.5 115.8,630.6 128,637.6 140.2,630.6 						"/>
						<line class="st18" x1="110.3" y1="609.7" x2="145.7" y2="656.3"/>
						<line class="st18" x1="145.7" y1="609.7" x2="110.3" y2="656.3"/>
						<g>
							<defs>
								<path id="SVGID_15_" d="M173,613.8l-0.5,5.9l3.2-1.9l-1.3,14.4l-0.5-12l-1.8,1.5l-1.1,0.9l-0.1-1.5l-0.6-7.3H167v12.8
									c0,6.2,4.8,11.4,10.9,12v11.5h-6.6v2.1h15.4v-2.1h-6.6v-11.5c6.2-0.5,10.9-5.7,10.9-12v-12.8H173z"/>
							</defs>
							<clipPath id="SVGID_16_">
								<use xlink:href="#SVGID_15_"  style="overflow:visible;"/>
							</clipPath>
							<g class="st19">
								<g>
									<defs>
										<rect id="SVGID_17_" x="-780" y="109.9" width="1920" height="1080"/>
									</defs>
									<clipPath id="SVGID_18_">
										<use xlink:href="#SVGID_17_"  style="overflow:visible;"/>
									</clipPath>
									<g class="st20">
										<rect x="162" y="608.8" class="st3" width="34" height="48.3"/>
									</g>
								</g>
								<polygon class="st21" points="13,621.3 26,613.8 39,621.3 26,628.8 								"/>
								<polygon class="st21" points="26,643.8 36.1,638 39,621.3 26,628.8 13,621.3 16,638.1 								"/>
								<line class="st22" x1="26" y1="628.8" x2="26" y2="636.4"/>
								<polygon class="st21" points="26,648.1 36.1,642.2 39,625.6 26,633.1 13,625.6 16,642.3 								"/>
								<line class="st22" x1="26" y1="633.1" x2="26" y2="640.6"/>
								<polygon class="st21" points="26,652.2 36.1,646.4 39,629.7 26,637.2 13,629.7 16,646.5 								"/>
								<line class="st22" x1="26" y1="637.2" x2="26" y2="652.1"/>
							</g>
						</g>
					</g>
				</g>
			</g>
		</g>
	</g>
</g>
<g>
	<g>
		<defs>
			<polygon id="SVGID_19_" points="65.1,635.4 77.3,628.3 89.6,635.4 77.3,642.5 			"/>
		</defs>
		<clipPath id="SVGID_20_">
			<use xlink:href="#SVGID_19_"  style="overflow:visible;"/>
		</clipPath>
		<rect x="60.1" y="623.3" class="st23" width="34.6" height="24.2"/>
	</g>
	<polygon class="st24" points="65.1,635.4 77.3,628.3 89.6,635.4 77.3,642.5 	"/>
	<g>
		<defs>
			<polygon id="SVGID_21_" points="89.6,635.4 77.3,642.5 65.1,635.4 65.1,649.6 77.3,656.7 89.6,649.6 			"/>
		</defs>
		<clipPath id="SVGID_22_">
			<use xlink:href="#SVGID_21_"  style="overflow:visible;"/>
		</clipPath>
		<rect x="60.1" y="630.4" class="st25" width="34.6" height="31.3"/>
	</g>
	<polygon class="st24" points="89.6,635.4 77.3,642.5 65.1,635.4 65.1,649.6 77.3,656.7 89.6,649.6 	"/>
	<g>
		<defs>
			<polygon id="SVGID_23_" points="65.1,616.4 77.3,609.3 89.6,616.4 77.3,623.5 			"/>
		</defs>
		<clipPath id="SVGID_24_">
			<use xlink:href="#SVGID_23_"  style="overflow:visible;"/>
		</clipPath>
		<rect x="60.1" y="604.3" class="st26" width="34.6" height="24.2"/>
	</g>
	<polygon class="st24" points="65.1,616.4 77.3,609.3 89.6,616.4 77.3,623.5 	"/>
	<g>
		<defs>
			<polygon id="SVGID_25_" points="89.6,616.4 77.3,623.5 65.1,616.4 65.1,630.5 77.3,637.7 89.6,630.6 			"/>
		</defs>
		<clipPath id="SVGID_26_">
			<use xlink:href="#SVGID_25_"  style="overflow:visible;"/>
		</clipPath>
		<rect x="60.1" y="611.4" class="st27" width="34.6" height="31.3"/>
	</g>
	<polygon class="st24" points="89.6,616.4 77.3,623.5 65.1,616.4 65.1,630.5 77.3,637.7 89.6,630.6 	"/>
	<g>
		<defs>
			<line id="SVGID_27_" x1="77.3" y1="637.7" x2="77.3" y2="623.5"/>
		</defs>
		<clipPath id="SVGID_28_">
			<use xlink:href="#SVGID_27_"  style="overflow:visible;"/>
		</clipPath>
		<rect x="72.3" y="618.5" class="st28" width="10" height="24.2"/>
	</g>
	<line class="st24" x1="77.3" y1="637.7" x2="77.3" y2="623.5"/>
	<g>
		<defs>
			<line id="SVGID_29_" x1="77.3" y1="642.5" x2="77.3" y2="657.3"/>
		</defs>
		<clipPath id="SVGID_30_">
			<use xlink:href="#SVGID_29_"  style="overflow:visible;"/>
		</clipPath>
		<rect x="72.3" y="637.5" class="st29" width="10" height="24.7"/>
	</g>
	<line class="st24" x1="77.3" y1="642.5" x2="77.3" y2="657.3"/>
	<g>
		<defs>
			<polygon id="SVGID_31_" points="116.2,635.5 128.3,628.5 140.5,635.5 128.3,642.5 			"/>
		</defs>
		<clipPath id="SVGID_32_">
			<use xlink:href="#SVGID_31_"  style="overflow:visible;"/>
		</clipPath>
		<rect x="111.2" y="623.5" class="st30" width="34.3" height="24"/>
	</g>
	<polygon class="st24" points="116.2,635.5 128.3,628.5 140.5,635.5 128.3,642.5 	"/>
	<g>
		<defs>
			<polygon id="SVGID_33_" points="140.5,635.5 128.3,642.5 116.2,635.5 116.2,649.6 128.3,656.6 140.5,649.6 			"/>
		</defs>
		<clipPath id="SVGID_34_">
			<use xlink:href="#SVGID_33_"  style="overflow:visible;"/>
		</clipPath>
		<rect x="111.2" y="630.5" class="st31" width="34.3" height="31.1"/>
	</g>
	<polygon class="st24" points="140.5,635.5 128.3,642.5 116.2,635.5 116.2,649.6 128.3,656.6 140.5,649.6 	"/>
	<g>
		<defs>
			<polygon id="SVGID_35_" points="116.2,616.6 128.3,609.6 140.5,616.6 128.3,623.6 			"/>
		</defs>
		<clipPath id="SVGID_36_">
			<use xlink:href="#SVGID_35_"  style="overflow:visible;"/>
		</clipPath>
		<rect x="111.2" y="604.6" class="st32" width="34.3" height="24"/>
	</g>
	<polygon class="st24" points="116.2,616.6 128.3,609.6 140.5,616.6 128.3,623.6 	"/>
	<g>
		<defs>
			<polygon id="SVGID_37_" points="140.5,616.6 128.3,623.6 116.2,616.6 116.2,630.7 128.3,637.7 140.5,630.7 			"/>
		</defs>
		<clipPath id="SVGID_38_">
			<use xlink:href="#SVGID_37_"  style="overflow:visible;"/>
		</clipPath>
		<rect x="111.2" y="611.6" class="st33" width="34.3" height="31.1"/>
	</g>
	<polygon class="st24" points="140.5,616.6 128.3,623.6 116.2,616.6 116.2,630.7 128.3,637.7 140.5,630.7 	"/>
	<g>
		<defs>
			<line id="SVGID_39_" x1="110.6" y1="609.8" x2="146" y2="656.4"/>
		</defs>
		<clipPath id="SVGID_40_">
			<use xlink:href="#SVGID_39_"  style="overflow:visible;"/>
		</clipPath>
		<rect x="105.6" y="604.8" class="st34" width="45.4" height="56.6"/>
	</g>
	<line class="st35" x1="110.6" y1="609.8" x2="146" y2="656.4"/>
	<g>
		<defs>
			<line id="SVGID_41_" x1="146" y1="609.8" x2="110.6" y2="656.4"/>
		</defs>
		<clipPath id="SVGID_42_">
			<use xlink:href="#SVGID_41_"  style="overflow:visible;"/>
		</clipPath>
		<rect x="105.6" y="604.8" class="st36" width="45.4" height="56.6"/>
	</g>
	<line class="st35" x1="146" y1="609.8" x2="110.6" y2="656.4"/>
	<g>
		<defs>
			<polygon id="SVGID_43_" points="13.3,621.4 26.3,613.9 39.3,621.4 26.3,628.9 			"/>
		</defs>
		<clipPath id="SVGID_44_">
			<use xlink:href="#SVGID_43_"  style="overflow:visible;"/>
		</clipPath>
		<rect x="8.3" y="608.9" class="st37" width="36" height="25"/>
	</g>
	<polygon class="st38" points="13.3,621.4 26.3,613.9 39.3,621.4 26.3,628.9 	"/>
	<g>
		<defs>
			<polygon id="SVGID_45_" points="26.3,643.9 36.4,638.1 39.3,621.4 26.3,628.9 13.3,621.4 16.4,638.2 			"/>
		</defs>
		<clipPath id="SVGID_46_">
			<use xlink:href="#SVGID_45_"  style="overflow:visible;"/>
		</clipPath>
		<rect x="8.3" y="616.4" class="st39" width="36" height="32.5"/>
	</g>
	<polygon class="st38" points="26.3,643.9 36.4,638.1 39.3,621.4 26.3,628.9 13.3,621.4 16.4,638.2 	"/>
	<line class="st38" x1="26.3" y1="628.9" x2="26.3" y2="636.4"/>
	<g>
		<defs>
			<polygon id="SVGID_47_" points="26.3,648.2 36.4,642.3 39.3,625.7 26.3,633.2 13.3,625.7 16.4,642.4 			"/>
		</defs>
		<clipPath id="SVGID_48_">
			<use xlink:href="#SVGID_47_"  style="overflow:visible;"/>
		</clipPath>
		<rect x="8.3" y="620.7" class="st40" width="36" height="32.5"/>
	</g>
	<polygon class="st38" points="26.3,648.2 36.4,642.3 39.3,625.7 26.3,633.2 13.3,625.7 16.4,642.4 	"/>
	<line class="st38" x1="26.3" y1="633.2" x2="26.3" y2="640.7"/>
	<g>
		<defs>
			<polygon id="SVGID_49_" points="26.3,652.3 36.4,646.5 39.3,629.8 26.3,637.3 13.3,629.8 16.4,646.6 			"/>
		</defs>
		<clipPath id="SVGID_50_">
			<use xlink:href="#SVGID_49_"  style="overflow:visible;"/>
		</clipPath>
		<rect x="8.3" y="624.8" class="st41" width="36" height="32.5"/>
	</g>
	<polygon class="st38" points="26.3,652.3 36.4,646.5 39.3,629.8 26.3,637.3 13.3,629.8 16.4,646.6 	"/>
	<line class="st38" x1="26.3" y1="637.3" x2="26.3" y2="652.2"/>
</g>
<g>
	<defs>
		<path id="SVGID_51_" d="M265.6,55.4c2.9-0.8,5.4-2.8,7-5.6c3.3-5.9,0.7-10.7-5.5-14.2c-5.2-2.9-11.6-2.8-14.7,2.3
			c-1.8,2.9-2.2,6.3-1.3,9.4c0.2,0.6,0.1,1.2-0.3,1.7c-0.1,0.1-0.1,0.2-0.2,0.3c-0.5,1-0.6,2.1-0.4,3.2c3.3,1.1,7.2,3,11.4,6.5
			c1.1-0.4,2-1.1,2.6-2.1c0.1-0.1,0.1-0.2,0.1-0.3C264.6,56,265,55.5,265.6,55.4z M330.9,160.1C408.7,132.7,359.6,54,359.6,54
			c-14.9,0.7-22.1,10.9-22.1,10.9c10.9,20.2,11.3,33.2,9,41.2c-8.6-9.3-26.3-15.7-46.6-15.7c-19.7,0-36.8,6-45.7,14.8
			c-5.1-16.9,9.1-39.9,9.1-39.9C251.9,53.6,242,54.8,242,54.8c-45.8,76.7,15.6,101.5,26.6,105.3c-1.1-3.9-1.7-7.9-1.7-12.1
			c0-8.7,2.4-16.8,7.1-23.6c4.6-6.7,11-11.5,18.2-13.4c0.3-0.1,0.5-0.2,0.6-0.4c1.8-2.3,4.3-3.6,6.9-3.6c2.6,0,5.1,1.3,6.9,3.5
			c0.1,0.2,0.4,0.3,0.6,0.4c7.2,1.9,13.7,6.7,18.4,13.4c4.6,6.7,7.2,15.1,7.2,23.7C332.7,152.1,332.1,156.2,330.9,160.1z
			 M299.7,122.1c0.1,0,0.1,0,0.2,0c7.3,0,14.2,3.1,20.6,9.1l3.9-1.9c-0.1-0.2-0.2-0.4-0.3-0.6c-1.1-2-2.5-3.8-3.9-5.4
			c-0.6-0.7-1.2-1.3-1.8-1.9c-0.6-0.6-1.3-1.2-1.9-1.7c-1.7-1.3-3.5-2.5-5.4-3.4c-1.5-0.7-3.1-1.3-4.7-1.8c-0.4-0.1-0.7-0.2-1.1-0.4
			c-0.1-0.1-0.2-0.1-0.3-0.2c-0.4-0.3-0.8-0.6-1.1-1c-1.1-1.3-2.5-2.2-4-2.2c-1.6,0-3,0.8-4.1,2.2c-0.6,0.8-1.5,1.4-2.5,1.6
			c-7.7,2.1-14.2,7.8-18.3,15.4l3.1,1.4C280.7,128.8,288.9,122.1,299.7,122.1z M339.2,58.1c2.6-2.2,6.4-4.6,11.3-6.1
			c0.4-1.5,0.3-2.9-0.4-4.1c-0.1-0.1-0.1-0.2-0.2-0.3c-0.4-0.5-0.5-1.1-0.4-1.6c0.6-3.1,0-6.5-1.9-9.3c-3.4-4.8-9.9-4.5-14.8-1.3
			c-6,3.9-8.2,8.9-4.5,14.6c1.8,2.7,4.4,4.5,7.3,5.1c0.6,0.1,1.1,0.5,1.3,1c0,0.1,0.1,0.2,0.2,0.3C337.6,57.2,338.3,57.7,339.2,58.1
			z M278.8,135.5l-5.5-2.4c-1.8,4.5-2.8,9.5-2.8,14.8c0,0.6,0,1.1,0,1.7c0,0.3,0,0.5,0,0.8c0,0.3,0,0.6,0.1,0.9c0,0.3,0.1,0.7,0.1,1
			c0,0.2,0,0.4,0.1,0.6c0.1,0.4,0.1,0.8,0.2,1.2c0,0.1,0,0.3,0.1,0.4c0.1,0.4,0.2,0.9,0.2,1.3c0,0.1,0,0.2,0,0.2
			c0.1,0.5,0.2,0.9,0.3,1.4c0,0,0,0.1,0,0.1c0.1,0.5,0.3,1,0.4,1.5c0,0,0,0,0,0c0.1,0.5,0.3,1,0.5,1.5c4.3,12.8,14.9,21.8,27.2,21.8
			c12.9,0,23.8-9.7,27.7-23.3c0,0,0,0,0,0c0.1-0.5,0.3-1,0.4-1.5c0,0,0-0.1,0-0.1c0.1-0.5,0.2-0.9,0.3-1.4c0-0.1,0-0.2,0-0.2
			c0.1-0.4,0.2-0.9,0.2-1.3c0-0.1,0-0.3,0.1-0.4c0.1-0.4,0.1-0.8,0.2-1.2c0-0.2,0-0.4,0.1-0.6c0-0.3,0.1-0.7,0.1-1
			c0-0.3,0-0.6,0.1-0.9c0-0.3,0-0.5,0-0.8c0-0.6,0-1.1,0-1.7c0-1.5-0.1-3-0.3-4.5c-0.1-1-0.3-2-0.4-2.9c-0.5-2.8-1.4-5.5-2.4-8
			l-6.2,3.1l-0.9-0.9c-5.9-5.9-12.3-8.9-19-8.9c0,0-0.1,0-0.1,0c-11.4,0.1-20,8.8-20.1,8.9L278.8,135.5z"/>
	</defs>
	<clipPath id="SVGID_52_">
		<use xlink:href="#SVGID_51_"  style="overflow:visible;"/>
	</clipPath>
	<rect x="220.2" y="28" class="st42" width="159.7" height="159.3"/>
</g>
<g>
	<defs>
		<path id="SVGID_53_" d="M5.2,577l-0.3,4.6l2.3-1.5l-0.9,11.3L5.9,582l-1.3,1.2l-0.8,0.7l-0.1-1.2L3.3,577H1v10
			c0,4.9,3.4,8.9,7.8,9.4v9H4.1v1.7h10.9v-1.6h-4.7v-9c4.3-0.4,7.8-4.4,7.8-9.4v-10H5.2z"/>
	</defs>
	<clipPath id="SVGID_54_">
		<use xlink:href="#SVGID_53_"  style="overflow:visible;"/>
	</clipPath>
	<rect x="-4" y="572" class="st43" width="27" height="40"/>
</g>
<g>
	<defs>
		<path id="SVGID_55_" d="M436.9,23.2c0.8-0.2,1.4-0.7,1.9-1.5c0.9-1.6,0.2-2.9-1.5-3.8c-1.4-0.8-3.1-0.7-3.9,0.6
			c-0.5,0.8-0.6,1.7-0.3,2.5c0,0.2,0,0.3-0.1,0.4c0,0,0,0,0,0.1c-0.1,0.3-0.2,0.6-0.1,0.9c0.9,0.3,1.9,0.8,3.1,1.7
			c0.3-0.1,0.5-0.3,0.7-0.6c0,0,0,0,0-0.1C436.7,23.4,436.8,23.2,436.9,23.2z M454.4,51.2c20.8-7.3,7.7-28.4,7.7-28.4
			c-4,0.2-5.9,2.9-5.9,2.9c2.9,5.4,3,8.9,2.4,11c-2.3-2.5-7-4.2-12.5-4.2c-5.3,0-9.8,1.6-12.2,4c-1.4-4.5,2.4-10.7,2.4-10.7
			c-3.1-3.2-5.7-2.8-5.7-2.8c-12.2,20.6,4.2,27.2,7.1,28.2c-0.3-1-0.5-2.1-0.5-3.2c0-2.3,0.7-4.5,1.9-6.3c1.2-1.8,2.9-3.1,4.9-3.6
			c0.1,0,0.1-0.1,0.2-0.1c0.5-0.6,1.1-1,1.9-1c0.7,0,1.4,0.3,1.8,0.9c0,0,0.1,0.1,0.2,0.1c1.9,0.5,3.7,1.8,4.9,3.6
			c1.2,1.8,1.9,4,1.9,6.3C454.9,49.1,454.7,50.2,454.4,51.2z M446.1,41.1C446.1,41.1,446.1,41.1,446.1,41.1c2,0,3.9,0.8,5.5,2.4
			l1-0.5c0-0.1-0.1-0.1-0.1-0.2c-0.3-0.5-0.7-1-1-1.5c-0.2-0.2-0.3-0.3-0.5-0.5c-0.2-0.2-0.3-0.3-0.5-0.5c-0.4-0.4-0.9-0.7-1.4-0.9
			c-0.4-0.2-0.8-0.4-1.3-0.5c-0.1,0-0.2-0.1-0.3-0.1c0,0-0.1,0-0.1-0.1c-0.1-0.1-0.2-0.2-0.3-0.3c-0.3-0.4-0.7-0.6-1.1-0.6
			c-0.4,0-0.8,0.2-1.1,0.6c-0.2,0.2-0.4,0.4-0.7,0.4c-2.1,0.6-3.8,2.1-4.9,4.1l0.8,0.4C441,42.9,443.2,41.1,446.1,41.1z M456.6,23.9
			c0.7-0.6,1.7-1.2,3-1.6c0.1-0.4,0.1-0.8-0.1-1.1c0,0,0,0,0-0.1c-0.1-0.1-0.1-0.3-0.1-0.4c0.2-0.8,0-1.7-0.5-2.5
			c-0.9-1.3-2.6-1.2-4-0.3c-1.6,1-2.2,2.4-1.2,3.9c0.5,0.7,1.2,1.2,2,1.4c0.2,0,0.3,0.1,0.4,0.3c0,0,0,0,0,0.1
			C456.2,23.7,456.4,23.8,456.6,23.9z M440.5,44.7L439,44c-0.5,1.2-0.8,2.5-0.8,4c0,0.2,0,0.3,0,0.5c0,0.1,0,0.1,0,0.2
			c0,0.1,0,0.2,0,0.2c0,0.1,0,0.2,0,0.3c0,0.1,0,0.1,0,0.2c0,0.1,0,0.2,0,0.3c0,0,0,0.1,0,0.1c0,0.1,0,0.2,0.1,0.4c0,0,0,0,0,0.1
			c0,0.1,0.1,0.3,0.1,0.4c0,0,0,0,0,0c0,0.1,0.1,0.3,0.1,0.4c0,0,0,0,0,0c0,0.1,0.1,0.3,0.1,0.4c1.1,3.4,4,5.8,7.3,5.8
			c3.4,0,6.3-2.6,7.4-6.2c0,0,0,0,0,0c0-0.1,0.1-0.3,0.1-0.4c0,0,0,0,0,0c0-0.1,0.1-0.2,0.1-0.4c0,0,0,0,0-0.1c0-0.1,0-0.2,0.1-0.4
			c0,0,0-0.1,0-0.1c0-0.1,0-0.2,0-0.3c0-0.1,0-0.1,0-0.2c0-0.1,0-0.2,0-0.3c0-0.1,0-0.2,0-0.2c0-0.1,0-0.1,0-0.2c0-0.2,0-0.3,0-0.5
			c0-0.4,0-0.8-0.1-1.2c0-0.3-0.1-0.5-0.1-0.8c-0.1-0.8-0.4-1.5-0.7-2.1l-1.6,0.8l-0.2-0.2c-1.6-1.6-3.3-2.4-5.1-2.4c0,0,0,0,0,0
			c-3,0-5.3,2.4-5.4,2.4L440.5,44.7z"/>
	</defs>
	<clipPath id="SVGID_56_">
		<use xlink:href="#SVGID_55_"  style="overflow:visible;"/>
	</clipPath>
	<rect x="424.8" y="15.9" class="st44" width="42.7" height="42.7"/>
</g>
<g>
	<defs>
		<path id="SVGID_57_" d="M251.8,469.1c-8.2-8.2-21.5-8.2-29.7,0c-8.2,8.2-8.2,21.5,0,29.7c8.2,8.2,21.5,8.2,29.7,0
			C260.1,490.6,260.1,477.4,251.8,469.1C251.9,469.2,251.9,469.2,251.8,469.1z M238.7,497h-3.5v-11.3H224v-3.5h11.3V471h3.5v11.3
			H250v3.5h-11.3L238.7,497z"/>
	</defs>
	<clipPath id="SVGID_58_">
		<use xlink:href="#SVGID_57_"  style="overflow:visible;"/>
	</clipPath>
	<g class="st45">
		<g>
			<defs>
				<rect id="SVGID_59_" x="-1115.7" y="153.6" width="1612.8" height="907.2"/>
			</defs>
			<clipPath id="SVGID_60_">
				<use xlink:href="#SVGID_59_"  style="overflow:visible;"/>
			</clipPath>
			<g class="st46">
				
					<rect x="211.8" y="458.8" transform="matrix(0.7071 -0.7071 0.7071 0.7071 -272.8235 309.3445)" class="st1" width="50.4" height="50.4"/>
			</g>
		</g>
		<path class="st12" d="M291-251c0,1.7-1.3,3-3,3s-3-1.3-3-3H291z M290-269.7c3,0.9,5,3.6,5,6.7v5h0.5c1.4,0,2.5,1.1,2.5,2.5
			c0,0,0,0,0,0c0,1.4-1.1,2.5-2.5,2.5h-15c-1.4,0-2.5-1.1-2.5-2.5c0,0,0,0,0,0c0-1.4,1.1-2.5,2.5-2.5h0.5v-5c0-3.1,2-5.8,5-6.7
			c0-0.1,0-0.2,0-0.3c0-1.1,0.9-2,2-2s2,0.9,2,2C290-269.9,290-269.8,290-269.7L290-269.7z"/>
		<g>
			<defs>
				<path id="SVGID_61_" d="M291-251c0,1.7-1.3,3-3,3s-3-1.3-3-3H291z M290-269.7c3,0.9,5,3.6,5,6.7v5h0.5c1.4,0,2.5,1.1,2.5,2.5
					c0,0,0,0,0,0c0,1.4-1.1,2.5-2.5,2.5h-15c-1.4,0-2.5-1.1-2.5-2.5c0,0,0,0,0,0c0-1.4,1.1-2.5,2.5-2.5h0.5v-5c0-3.1,2-5.8,5-6.7
					c0-0.1,0-0.2,0-0.3c0-1.1,0.9-2,2-2s2,0.9,2,2C290-269.9,290-269.8,290-269.7L290-269.7z"/>
			</defs>
			<clipPath id="SVGID_62_">
				<use xlink:href="#SVGID_61_"  style="overflow:visible;"/>
			</clipPath>
			<g class="st47">
				<rect x="69" y="-344.9" class="st12" width="811" height="759.3"/>
			</g>
		</g>
		<path class="st1" d="M5.2,577l-0.3,4.6l2.3-1.5l-0.9,11.3L5.9,582l-1.3,1.2l-0.8,0.7l-0.1-1.2L3.3,577H1v10c0,4.9,3.4,8.9,7.8,9.4
			v9H4.1v1.7h10.9v-1.6h-4.7v-9c4.3-0.4,7.8-4.4,7.8-9.4v-10H5.2z"/>
		<g>
			<defs>
				<path id="SVGID_63_" d="M5.2,577l-0.3,4.6l2.3-1.5l-0.9,11.3L5.9,582l-1.3,1.2l-0.8,0.7l-0.1-1.2L3.3,577H1v10
					c0,4.9,3.4,8.9,7.8,9.4v9H4.1v1.7h10.9v-1.6h-4.7v-9c4.3-0.4,7.8-4.4,7.8-9.4v-10H5.2z"/>
			</defs>
			<clipPath id="SVGID_64_">
				<use xlink:href="#SVGID_63_"  style="overflow:visible;"/>
			</clipPath>
			<g class="st48">
				<rect x="-669.8" y="182.4" class="st1" width="1360" height="845.6"/>
				<g>
					<defs>
						<rect id="SVGID_65_" x="-669.8" y="182.4" width="1360" height="845.6"/>
					</defs>
					<clipPath id="SVGID_66_">
						<use xlink:href="#SVGID_65_"  style="overflow:visible;"/>
					</clipPath>
					<g class="st49">
						<rect x="-2.5" y="573.1" class="st1" width="24.1" height="37.8"/>
					</g>
				</g>
				<polygon class="st16" points="64.7,635.3 77,628.2 89.3,635.3 77,642.4 				"/>
				<polygon class="st16" points="89.3,635.3 77,642.4 64.7,635.3 64.7,649.5 77,656.6 89.3,649.5 				"/>
				<polygon class="st16" points="64.7,616.3 77,609.2 89.3,616.3 77,623.4 				"/>
				<polygon class="st16" points="89.3,616.3 77,623.4 64.7,616.3 64.7,630.4 77,637.6 89.3,630.5 				"/>
				<line class="st17" x1="77" y1="637.6" x2="77" y2="623.4"/>
				<line class="st17" x1="77" y1="642.4" x2="77" y2="657.2"/>
				<polygon class="st16" points="115.8,635.4 128,628.4 140.2,635.4 128,642.4 				"/>
				<polygon class="st16" points="140.2,635.4 128,642.4 115.8,635.4 115.8,649.5 128,656.5 140.2,649.5 				"/>
				<polygon class="st16" points="115.8,616.5 128,609.5 140.2,616.5 128,623.6 				"/>
				<polygon class="st16" points="140.2,616.5 128,623.6 115.8,616.5 115.8,630.6 128,637.6 140.2,630.6 				"/>
				<line class="st18" x1="110.3" y1="609.7" x2="145.7" y2="656.3"/>
				<line class="st18" x1="145.7" y1="609.7" x2="110.3" y2="656.3"/>
				<g>
					<defs>
						<path id="SVGID_67_" d="M173,613.8l-0.5,5.9l3.2-1.9l-1.3,14.4l-0.5-12l-1.8,1.5l-1.1,0.9l-0.1-1.5l-0.6-7.3H167v12.8
							c0,6.2,4.8,11.4,10.9,12v11.5h-6.6v2.1h15.4v-2.1h-6.6v-11.5c6.2-0.5,10.9-5.7,10.9-12v-12.8H173z"/>
					</defs>
					<clipPath id="SVGID_68_">
						<use xlink:href="#SVGID_67_"  style="overflow:visible;"/>
					</clipPath>
					<g class="st50">
						<g>
							<defs>
								<rect id="SVGID_69_" x="-780" y="109.8" width="1920" height="1080"/>
							</defs>
							<clipPath id="SVGID_70_">
								<use xlink:href="#SVGID_69_"  style="overflow:visible;"/>
							</clipPath>
							<g class="st51">
								<rect x="162" y="608.8" class="st3" width="34" height="48.3"/>
							</g>
						</g>
						<polygon class="st21" points="13,621.3 26,613.8 39,621.3 26,628.8 						"/>
						<polygon class="st21" points="26,643.8 36.1,638 39,621.3 26,628.8 13,621.3 16,638.1 						"/>
						<line class="st22" x1="26" y1="628.8" x2="26" y2="636.4"/>
						<polygon class="st21" points="26,648.1 36.1,642.2 39,625.6 26,633.1 13,625.6 16,642.3 						"/>
						<line class="st22" x1="26" y1="633.1" x2="26" y2="640.6"/>
						<polygon class="st21" points="26,652.2 36.1,646.4 39,629.7 26,637.2 13,629.7 16,646.5 						"/>
						<line class="st22" x1="26" y1="637.2" x2="26" y2="652.1"/>
					</g>
				</g>
			</g>
		</g>
	</g>
</g>
<g>
	<defs>
		<path id="SVGID_71_" d="M173,613.9l-0.5,5.9l3.2-1.9l-1.3,14.4l-0.5-12l-1.8,1.5l-1.1,0.9l-0.1-1.5l-0.6-7.3h-3.3v12.8
			c0,6.3,4.8,11.4,10.9,12v11.5h-6.6v2.1h6.6h2.1h6.6v-2.1h-6.6v-11.5c6.1-0.5,10.9-5.7,10.9-12v-12.8H173z"/>
	</defs>
	<clipPath id="SVGID_72_">
		<use xlink:href="#SVGID_71_"  style="overflow:visible;"/>
	</clipPath>
	<g class="st52">
		<defs>
			<rect id="SVGID_73_" x="-751.9" y="-220.1" width="1920" height="1080"/>
		</defs>
		<clipPath id="SVGID_74_">
			<use xlink:href="#SVGID_73_"  style="overflow:visible;"/>
		</clipPath>
		<rect x="162.1" y="608.9" class="st53" width="34" height="48.3"/>
	</g>
</g>
<g id="Page-1" transform="translate(50.000000, 15.000000)">
	<path id="Fill-1" class="st54" d="M263.8,472.2v1.9h-1.4v-1.9c-0.4-0.2-0.7-0.7-0.7-1.2c0-0.8,0.6-1.4,1.4-1.4
		c0.8,0,1.4,0.6,1.4,1.4C264.5,471.6,264.2,472,263.8,472.2L263.8,472.2z M259.2,459.1c0-0.5,0.4-0.9,0.8-0.9h6
		c0.5,0,0.9,0.4,0.9,0.9v4.8h-7.7V459.1z M271.1,463.9h-1.8v-4.8c0-1.7-1.4-3.1-3.2-3.1h-6c-1.7,0-3.1,1.4-3.1,3.1v4.8h-1.8
		c-1.1,0-2,0.9-2,2v12c0,1.1,0.9,2,2,2h16c1.1,0,2-0.9,2-2v-12C273.1,464.8,272.2,463.9,271.1,463.9L271.1,463.9z"/>
</g>
<g id="Clip-2">
</g>
<defs>
	<filter id="Adobe_OpacityMaskFilter" filterUnits="userSpaceOnUse" x="270.9" y="473.9" width="24" height="23.2">
		<feColorMatrix  type="matrix" values="1 0 0 0 0  0 1 0 0 0  0 0 1 0 0  0 0 0 1 0"/>
	</filter>
</defs>
<mask maskUnits="userSpaceOnUse" x="270.9" y="473.9" width="24" height="23.2" id="mask-2_2_">
	<g class="st55">
		<polygon id="path-1_2_" class="st3" points="270.9,494.1 294.9,494.1 294.9,470.9 270.9,470.9 		"/>
	</g>
</mask>
<path id="Fill-1_1_" class="st56" d="M294.9,497.1c0-6-4.9-10.9-11.2-11.3c3-0.3,5.3-2.8,5.3-5.8c0-3.3-2.6-6-5.9-6
	c-3.3,0-6,2.6-6,5.9c0,3.1,2.3,5.6,5.2,6c-5.2,0.2-9.6,3.7-11,8.3c0,0,0,0,0,0h0c-0.3,1-0.4,2-0.4,3H294.9z"/>
<g id="Group-11" transform="translate(93.000000, 15.000000)">
	<g id="Group">
		<path id="Rectangle-10" class="st57" d="M121,582h72.1c3.9,0,7,3.1,7,7v119c0,3.9-3.1,7-7,7H121c-3.9,0-7-3.1-7-7V589
			C114,585.1,117.1,582,121,582z"/>
		<path id="Fill-1_2_" class="st58" d="M176.3,647.3l-10.5-5.2c-1.4-0.7-2.2-2-2.2-3.5v-4.1c0.3-0.3,0.6-0.8,1-1.3
			c1.4-2,2.5-4.2,3.2-6.5c1.3-0.4,2.3-1.6,2.3-3.1v-4.3c0-1-0.4-1.8-1.1-2.4v-6.3c0,0,1.3-9.8-12-9.8s-12,9.8-12,9.8v6.3
			c-0.7,0.6-1.1,1.4-1.1,2.4v4.3c0,1.1,0.6,2.2,1.5,2.7c1.1,4.7,4,8.1,4,8.1v4c0,1.4-0.8,2.8-2.1,3.5l-9.8,5.3
			c-2.8,1.5-4.6,4.5-4.6,7.7v3.5h48.2v-3.3C181.1,651.8,179.2,648.8,176.3,647.3z"/>
		<path id="Rectangle-9" class="st58" d="M133.5,664.4v7.1h47.2v-7.1H133.5z"/>
		<path id="Rectangle-9-Copy" class="st58" d="M137.8,673.9v1.7h38.4v-1.7H137.8z"/>
		<path id="Rectangle-9-Copy-2" class="st58" d="M135.1,689.3v1.7H179v-1.7H135.1z"/>
		<path id="Rectangle-9-Copy-3" class="st58" d="M135.1,693.7v1.7H179v-1.7H135.1z"/>
	</g>
</g>
</svg>
