<svg xmlns="http://www.w3.org/2000/svg" width="46" height="46" viewBox="0 0 46 46">
  <g fill="none">
    <path stroke="#EC6520" stroke-width="2" d="M43.7233675,27.1313891 C43.5992412,27.0770449 43.4717652,27.0315356 43.3419146,26.9950412 L43.341771,28.3587806 C43.3113803,29.6919187 42.6090365,30.9199665 41.414399,31.6632055 L41.2901042,31.7288901 L33.2238225,35.6950439 C32.0763356,36.2982743 30.7025242,36.2982743 29.5790768,35.7072705 L21.4593833,31.7138395 L21.3054549,31.6290981 C20.1698233,30.9199665 19.4674795,29.6919187 19.4368291,28.3359901 L19.4368291,24.8391527 C18.3618714,24.1129826 17.3548954,23.2912274 16.4263033,22.3817422 C14.0182501,20.0024882 12.1143546,16.786513 10.6693973,13.2226573 L1.17945322,21.4494346 C1.17174736,21.4568719 1.17174736,21.4568719 1.16417172,21.4641735 C1.12153876,21.5051986 1.12153876,21.5051986 1.08381083,21.5417443 C1.07563855,21.5496988 1.06788821,21.5572968 1.06054879,21.5645395 C2.110923,24.6760472 2.81245545,28.7674569 3.23943198,33.4035153 C3.39258052,35.0663832 3.49882125,36.684848 3.56632047,38.1945532 C3.60775423,39.1212714 3.63155091,39.9842614 3.63083031,40.1716909 C3.69164832,41.7728502 4.54069464,43.2442191 5.91176439,44.1144324 C6.80797974,44.6925398 7.85506322,45.0003181 8.9251172,45.0000001 C9.5991346,44.999644 10.2671517,44.8751735 10.8910948,44.6345184 C11.8575073,44.2570694 12.6296414,43.7420041 14.0687984,42.6036911 C14.2003994,42.4995256 14.2003994,42.4995256 14.3283472,42.3982447 C15.129429,41.7570686 15.5196004,41.4571018 16.0024797,41.1274206 C18.364727,39.512211 20.5263834,38.8976416 25.2678078,38.11625 C25.3997081,38.0945245 25.3997081,38.0945245 25.5290338,38.0732474 C25.6820474,38.0476423 25.8134236,38.026028 26.0764177,37.9830254 C26.1012242,37.9789694 26.1012242,37.9789694 26.1260131,37.9749161 C26.6241317,37.8934644 26.8669119,37.852881 27.1453377,37.8034247 C30.357807,37.2378965 33.7058348,36.0629051 37.3893532,34.1995224 C38.0641996,33.8652561 38.7912632,33.4686986 39.804385,32.8857632 C40.249389,32.6664599 40.718331,32.4987041 41.192615,32.3880165 C41.5358753,32.3043908 41.8728742,32.1973889 42.1681276,32.0815256 C43.4925663,31.5030511 44.482112,30.7339142 44.848679,29.8642254 C45.2715433,28.8042403 44.7781439,27.6014181 43.7233676,27.1313895 Z M43.7233676,27.1313895 C43.7226553,27.131072 43.7219427,27.1307549 43.7212298,27.1304382 L43.7255104,27.1323283 C43.7247962,27.1320149 43.7240819,27.1317019 43.7233675,27.1313891 Z M16.3296037,30.0014646 C15.3761486,30.0014646 14.5994303,29.2320133 14.5994303,28.2781228 C14.5994303,27.3242322 15.3761486,26.5547809 16.3296037,26.5547809 L19.341569,26.5547809 C20.2950241,26.5547809 21.0717424,27.3242322 21.0717424,28.2781228 C21.0717424,29.2320133 20.2950241,30.0014646 19.341569,30.0014646 L16.3296037,30.0014646 Z M17.8774733,31.2565198 C17.8777893,31.2565177 17.8781054,31.2565163 17.8784215,31.2565154 L17.8765252,31.2565225 C17.8768414,31.256521 17.8771575,31.2565201 17.8774736,31.2565197 Z M17.884971,33.2565046 C17.1219856,33.2596756 16.4451871,32.7642322 16.222418,32.0345801 C15.9986404,31.3016253 16.2875488,30.5107535 16.9248842,30.0947261 L19.1154044,28.6480423 C19.9084814,28.1242711 20.9785279,28.3362781 21.5092433,29.1249031 C22.043753,29.9191665 21.8267965,30.9938003 21.0280803,31.5212959 L18.8406268,32.9659463 C18.5575632,33.1543893 18.2251196,33.2553664 17.884971,33.2565046 Z M23.1809285,32.0450098 L23.1698874,32.0799258 L22.4401318,34.2487072 C22.2048985,34.9508521 21.5466707,35.4235162 20.7947065,35.4265029 C20.606696,35.4251474 20.4201702,35.3928841 20.2606524,35.3370703 C19.8250433,35.1943958 19.4635884,34.8851002 19.2565319,34.4764767 C19.0485405,34.0660082 19.0138147,33.5896887 19.1604667,33.1528057 L19.9040778,30.9453262 C20.2340911,30.0800723 21.189839,29.6307395 22.0685166,29.9224229 C22.9512445,30.2154508 23.4451537,31.1529336 23.1809285,32.0450098 Z"/>
    <path fill="#EC6520" d="M21.6804862,29.8331872 L29.7642368,33.815527 L29.8226823,33.8480802 C30.2397243,34.0506399 30.727971,34.0506399 31.145013,33.8480802 L31.2034585,33.815527 L39.2981676,29.8368042 C39.7114262,29.5689691 39.9696194,29.1208897 39.9922086,28.6323363 L39.9922086,26.4042515 L39.9922086,26.4042515 C39.9922086,26.4042515 39.9922086,18.9459547 39.9922086,18.8989334 C39.9922086,18.8519122 39.9922086,18.8989334 39.9922086,18.8989334 C40.024138,18.6874022 39.9568941,18.4730004 39.8095662,18.3165931 L39.6269239,18.1574442 L39.4735043,17.9946783 L37.0699309,15.4157425 L31.7769555,9.73701987 C32.1230277,9.63745552 32.3440781,9.30288027 32.2975834,8.94901355 C32.2510886,8.59514683 31.95094,8.32771559 31.5906603,8.31914774 L31.2253756,8.31914774 L31.2253756,0.723404151 C31.2253756,0.32387907 30.8982885,0 30.4948062,0 C30.0913239,0 29.7642368,0.32387907 29.7642368,0.723404151 L29.7642368,8.31914774 L29.3989521,8.31914774 C29.0380418,8.32606659 28.7363374,8.59295436 28.6888684,8.94728791 C28.6413994,9.30162145 28.8623976,9.63716726 29.209004,9.73701987 L23.8977644,15.4193595 L21.4686211,18.0199974 L21.3663414,18.128508 L21.1910047,18.3165931 C21.0422084,18.477999 20.9750768,18.6973605 21.0083624,18.9134015 C21.0083624,19.3076568 21.0083624,25.4638261 21.0083624,25.4638261 L21.0083624,28.6142512 C21.0213509,29.1039618 21.2714773,29.5575807 21.6804862,29.8331872 Z M38.5310697,20.0672311 L38.5310697,28.574464 C38.5317488,28.5828903 38.5317488,28.5913568 38.5310697,28.5997831 L31.2253756,32.1914847 L31.2253756,23.1489328 L38.5310697,20.0672311 Z M27.0574771,14.1678703 L30.4948062,10.4893602 L33.9284824,14.1642533 L36.2370818,16.6382955 L36.2370818,16.6382955 L31.2619041,14.6670192 L31.1778886,14.634466 L31.1267487,14.6091468 L31.0098576,14.5585085 C30.9818208,14.5456443 30.9524138,14.5359381 30.9221893,14.5295724 L30.834521,14.5042532 C30.7231009,14.4790829 30.6090833,14.4669432 30.4948062,14.468083 L30.308511,14.468083 C30.256841,14.4729967 30.2055779,14.4814568 30.1550914,14.4934022 C30.1151367,14.5004002 30.0759814,14.5113046 30.0382003,14.5259554 L29.9907133,14.5259554 C29.9465668,14.5402783 29.9037841,14.558434 29.8628637,14.5802107 L29.7277083,14.638083 L24.7488778,16.6382955 L27.0574771,14.1678703 Z M22.4585427,20.0563801 L29.7642368,23.1272307 L29.7642368,32.1914847 L22.4585427,28.6034001 L22.4585427,28.574464 L22.4585427,20.0563801 Z"/>
  </g>
</svg>
