<svg xmlns="http://www.w3.org/2000/svg" viewBox="0 0 352 332"><defs><style>.cls-1{fill:#fff;}.cls-10,.cls-11,.cls-2,.cls-22,.cls-3,.cls-4,.cls-5,.cls-6,.cls-7,.cls-8,.cls-9{fill:none;}.cls-10,.cls-2,.cls-3,.cls-4,.cls-5,.cls-6,.cls-7,.cls-8,.cls-9{stroke:#a3a3a3;}.cls-10,.cls-2,.cls-22,.cls-3,.cls-4,.cls-5,.cls-6,.cls-7,.cls-8,.cls-9{stroke-linejoin:round;stroke-width:0.5px;}.cls-3{stroke-dasharray:2.05 2.05;}.cls-4{stroke-dasharray:2.04 2.04;}.cls-5{stroke-dasharray:1.87 1.87;}.cls-6{stroke-dasharray:2.03 2.03;}.cls-7{stroke-dasharray:1.99 1.99;}.cls-8{stroke-dasharray:2.01 2.01;}.cls-9{stroke-dasharray:2;}.cls-10,.cls-22{stroke-dasharray:5;}.cls-11{stroke:#ccc;stroke-miterlimit:10;stroke-width:2px;}.cls-12{opacity:0.75;}.cls-13{fill:#ccc;}.cls-14{fill:#eaeaea;}.cls-15{fill:#dddede;}.cls-16{fill:#f1f2f2;}.cls-17{fill:#b28b69;}.cls-18{fill:#deb594;}.cls-19{fill:#c89874;}.cls-20{fill:#f5d9c6;}.cls-21{fill:#deb89a;}.cls-22{stroke:#fff;}</style></defs><title>Asset 4</title><g id="Layer_2" data-name="Layer 2"><g id="Layer_1-2" data-name="Layer 1"><rect class="cls-1" x="1" y="1" width="350" height="330"/><line class="cls-2" x1="2.09" y1="181.93" x2="2.95" y2="182.43"/><line class="cls-3" x1="4.73" y1="183.45" x2="42.85" y2="205.47"/><line class="cls-2" x1="43.74" y1="205.98" x2="44.6" y2="206.48"/><line class="cls-2" x1="2.15" y1="204.05" x2="3.02" y2="204.55"/><line class="cls-4" x1="4.79" y1="205.57" x2="42.85" y2="227.55"/><line class="cls-2" x1="43.74" y1="228.06" x2="44.6" y2="228.56"/><line class="cls-2" x1="202.85" y1="319.73" x2="203.72" y2="320.23"/><line class="cls-5" x1="205.34" y1="321.17" x2="220.7" y2="330.03"/><line class="cls-2" x1="221.5" y1="330.5" x2="222.37" y2="331"/><line class="cls-2" x1="202.28" y1="297.77" x2="203.15" y2="298.27"/><line class="cls-6" x1="204.9" y1="299.29" x2="256.68" y2="329.18"/><line class="cls-2" x1="257.56" y1="329.69" x2="258.42" y2="330.19"/><line class="cls-2" x1="1" y1="60.19" x2="1.87" y2="60.69"/><line class="cls-7" x1="3.59" y1="61.68" x2="347.52" y2="260.25"/><line class="cls-2" x1="348.38" y1="260.75" x2="349.25" y2="261.25"/><line class="cls-2" x1="67.73" y1="0.52" x2="68.6" y2="1.02"/><line class="cls-8" x1="70.34" y1="2.02" x2="348.21" y2="162.45"/><line class="cls-2" x1="349.08" y1="162.95" x2="349.95" y2="163.45"/><line class="cls-9" x1="306.96" y1="2.57" x2="306.96" y2="237.12"/><line class="cls-9" x1="151.34" y1="1" x2="151.34" y2="47.33"/><line class="cls-9" x1="45.17" y1="229.56" x2="45.17" y2="330.41"/><line class="cls-9" x1="202.28" y1="322.95" x2="202.44" y2="329.93"/><path class="cls-10" d="M316.4,158.37"/><path class="cls-10" d="M211.36,213.93"/><rect class="cls-11" x="1" y="1" width="350" height="330"/><g class="cls-12"><rect x="48.76" y="213.67" width="2.46" height="16.31"/><rect x="62.64" y="220.95" width="2.46" height="16.31"/><rect x="55.13" y="216.88" width="0.82" height="16.31"/><rect x="57.32" y="217.58" width="0.82" height="16.31"/><rect x="58.51" y="219.05" width="0.82" height="16.31"/><rect x="51.68" y="215.01" width="0.28" height="16.31"/><rect x="47.71" y="212.98" width="0.28" height="16.31"/><rect x="52.44" y="215.66" width="0.28" height="16.31"/><rect x="53.2" y="216.01" width="0.28" height="16.31"/><rect x="53.96" y="216.66" width="0.28" height="16.31"/><rect x="59.69" y="219.18" width="0.28" height="16.31"/><rect x="60.45" y="219.83" width="0.28" height="16.31"/><rect x="61.22" y="220.18" width="0.28" height="16.31"/><rect x="61.97" y="220.83" width="0.28" height="16.31"/><rect x="56.5" y="217.58" width="0.28" height="16.31"/></g><g class="cls-12"><rect x="183.4" y="290.64" width="2.46" height="16.31"/><rect x="197.28" y="297.91" width="2.46" height="16.31"/><rect x="189.76" y="293.85" width="0.82" height="16.31"/><rect x="191.96" y="294.54" width="0.82" height="16.31"/><rect x="193.15" y="296.01" width="0.82" height="16.31"/><rect x="186.31" y="291.97" width="0.28" height="16.31"/><rect x="182.35" y="289.94" width="0.28" height="16.31"/><rect x="187.07" y="292.62" width="0.28" height="16.31"/><rect x="187.84" y="292.97" width="0.28" height="16.31"/><rect x="188.6" y="293.62" width="0.28" height="16.31"/><rect x="194.33" y="296.15" width="0.28" height="16.31"/><rect x="195.08" y="296.79" width="0.28" height="16.31"/><rect x="195.85" y="297.15" width="0.28" height="16.31"/><rect x="196.61" y="297.79" width="0.28" height="16.31"/><rect x="191.13" y="294.54" width="0.28" height="16.31"/></g><polygon class="cls-13" points="44.6 206.74 149.72 146.05 307.4 237.09 202.28 297.77 44.6 206.74"/><polygon class="cls-14" points="44.6 108.02 44.6 206.74 149.72 146.05 149.72 47.33 44.6 108.02"/><polygon class="cls-15" points="149.72 47.33 149.72 146.05 307.4 237.09 307.4 138.37 149.72 47.33"/><path class="cls-16" d="M44.6,206.83l.26,22.59,157.57,91V297.66Zm20,29.89-16.78-10L47.6,213l17,9.81ZM199.36,314l-17-9.7V290.63l17,9.81Z"/><polygon class="cls-17" points="198.06 206.48 220.89 193.3 220.89 246.01 198.06 259.19 198.06 206.48"/><polygon class="cls-18" points="129.59 166.94 152.41 153.76 220.89 193.3 198.06 206.48 129.59 166.94"/><polygon class="cls-19" points="129.59 166.94 129.59 219.66 198.06 259.19 198.06 206.48 129.59 166.94"/><polygon class="cls-20" points="129.59 202.48 129.59 186.96 198.06 226.62 198.06 242.14 129.59 202.48"/><polygon class="cls-21" points="198.07 242.11 198.07 226.63 209.74 219.92 209.72 235.42 198.07 242.11"/><line class="cls-22" x1="44.6" y1="108.02" x2="202.36" y2="193.93"/><line class="cls-22" x1="202.36" y1="193.93" x2="202.29" y2="296.94"/><line class="cls-22" x1="202.36" y1="193.93" x2="307.4" y2="138.37"/></g></g></svg>