<svg xmlns="http://www.w3.org/2000/svg" width="250" height="226" viewBox="0 0 250 226">
    <path fill="#969696" fill-rule="evenodd" d="M200 .5v49.8H50V.5h150zM212.3 113c3.6 0 6.65-1.2 9.15-3.6 2.5-2.4 3.75-5.3 3.75-8.7 0-3.4-1.25-6.4-3.75-9-2.5-2.6-5.55-3.9-9.15-3.9-3.6 0-6.55 1.25-8.85 3.75S200 97.1 200 100.7c0 3.6 1.2 6.55 3.6 8.85 2.4 2.3 5.3 3.45 8.7 3.45zm-37.5 87.3v-62.1H75.2v62.1h99.6zm37.5-137.1c6.6 0 12.8 1.7 18.6 5.1 5.8 3.4 10.4 8 13.8 13.8 3.4 5.8 5.1 12 5.1 18.6v75H200v49.8H50v-49.8H.2v-75c0-6.6 1.7-12.8 5.1-18.6 3.4-5.8 8-10.4 13.8-13.8 5.8-3.4 12-5.1 18.6-5.1h174.6z"/>
</svg>
